<svg id="Group_8" data-name="Group 8" xmlns="http://www.w3.org/2000/svg" width="336.545" height="56.626" viewBox="0 0 336.545 56.626">
  <path id="Path_137" data-name="Path 137" d="M-765.682-405.874l-9.176-16.026H-793.9l10.684,17.031Z" transform="translate(808.858 422.151)" fill="#171717" fill-rule="evenodd"/>
  <path id="Path_138" data-name="Path 138" d="M-782.113-395.394l-8.987,13.449,8.3-.063,4.148-6.222h9.49l4.651-7.919-.126-.251h0l-17.534,1.006Z" transform="translate(807.817 412.677)" fill="#171717" fill-rule="evenodd"/>
  <path id="Path_139" data-name="Path 139" d="M-742.764-365.674v-.063h0l-7.793-13.7L-769.6-379.5l7.6,13.324.251.44v.063Z" transform="translate(799.829 406.398)" fill="#171717" fill-rule="evenodd"/>
  <path id="Path_140" data-name="Path 140" d="M-788.625-365.7h0L-792.9-374l-8.484-.126-4.9-6.85-9.616-.126,8.673,15.209v.063Z" transform="translate(817.031 406.993)" fill="#171717" fill-rule="evenodd"/>
  <path id="Path_141" data-name="Path 141" d="M-817.7-341.851h18.917l4.588-7.1,5.279,7.1h18.854l9.427-15.649h-18.98l-8.3,13.072-4.839-6.725,3.457-5.782-18.6-.126.063.126Z" transform="translate(817.7 398.225)" fill="#171717" fill-rule="evenodd"/>
  <path id="Path_142" data-name="Path 142" d="M-298.6-422.3h10.307v54.488H-298.6Z" transform="translate(624.838 422.3)" fill="#171717"/>
  <path id="Path_143" data-name="Path 143" d="M-365-391.7h11.5v17.848c0,2.765.44,4.839,1.383,6.222a4.776,4.776,0,0,0,4.274,2.074,5.4,5.4,0,0,0,4.9-2.765c1.131-1.885,1.7-4.588,1.7-8.17V-391.7h11.5v35.446h-10.433v-6.6a14.569,14.569,0,0,1-5.091,5.4,13.219,13.219,0,0,1-7.039,1.823q-6.222,0-9.427-3.959c-2.137-2.64-3.205-6.536-3.205-11.627V-391.7Z" transform="translate(649.507 410.931)" fill="bl#171717ack"/>
  <path id="Path_144" data-name="Path 144" d="M-448.9-392.7h12.758v35.885H-448.9Z" transform="translate(680.679 411.303)" fill="#171717"/>
  <path id="Path_145" data-name="Path 145" d="M-471.953-391.323l-.691,10.181a6.7,6.7,0,0,0-1.7-.44,12.22,12.22,0,0,0-2.263-.126c-3.017,0-6.913.88-8.484,2.7s-2.325,4.462-2.325,7.982v14.643H-498.6v-34.377h11.375v6.536a15.334,15.334,0,0,1,4.714-5.656,12.151,12.151,0,0,1,6.662-1.823,29.727,29.727,0,0,1,3.582.377Z" transform="translate(699.144 410.931)" fill="#171717"/>
  <path id="Path_146" data-name="Path 146" d="M-528.14-377.163V-356.8h-10.872v-17.786c0-2.828-.44-4.9-1.32-6.285a4.522,4.522,0,0,0-4.085-2.074A5.336,5.336,0,0,0-549-380.368a12.45,12.45,0,0,0-1.7,6.976V-356.8h-11v-35.257h9.993v6.473a14.077,14.077,0,0,1,4.9-5.531A12.328,12.328,0,0,1-540.081-393c3.9,0,6.913,1.32,8.924,4.022s3.017,6.662,3.017,11.815Z" transform="translate(722.588 411.414)" fill="#171717"/>
  <path id="Path_147" data-name="Path 147" d="M-592.854-373.763v17.283h-10.621l-.251-4.148a12.938,12.938,0,0,1-5.279,4.525,17.731,17.731,0,0,1-7.416,1.445c-3.645,0-6.536-1.006-8.673-3.079a10.886,10.886,0,0,1-3.205-8.233,9.622,9.622,0,0,1,4.714-8.8c3.142-1.885,7.919-2.891,14.455-2.891h4.776v-.5a5.039,5.039,0,0,0-2.262-4.462c-1.508-1.068-3.645-1.571-6.536-1.571a17.8,17.8,0,0,0-4.776.754,33.51,33.51,0,0,0-5.782,2.2l-.189-8.044a33.745,33.745,0,0,1,6.473-1.885,47.909,47.909,0,0,1,7.667-.628c5.845,0,10.118,1.445,12.884,4.336,2.64,2.954,4.022,7.542,4.022,13.7Zm-13.009,2.074c-4.085,0-7.039.44-8.8,1.32a4.348,4.348,0,0,0-2.7,4.211,4.46,4.46,0,0,0,1.445,3.394,5.465,5.465,0,0,0,3.834,1.32,8.242,8.242,0,0,0,6.222-2.514,8.925,8.925,0,0,0,2.388-6.536v-1.131h-2.388Z" transform="translate(747.332 410.968)" fill="#171717"/>
  <path id="Path_148" data-name="Path 148" d="M-698.2-415h20.614c8.61,0,17.534,1.823,17.534,12.067,0,5.153-4.274,10.433-8.8,11.69,6.85,1.194,10.935,5.845,10.935,12.821,0,11.5-11.312,13.512-20.677,13.512h-19.545V-415Zm10.621,7.353v12.381h5.342c3.708,0,6.473-.5,8.3-1.571a5.232,5.232,0,0,0,2.765-4.839,4.924,4.924,0,0,0-2.577-4.462c-1.7-1.006-4.274-1.508-7.667-1.508Zm0,21.305v12.507h6.913c3.582,0,6.285-.566,8.17-1.634a5.174,5.174,0,0,0,2.765-4.714,5.05,5.05,0,0,0-2.577-4.588c-1.7-1.006-4.274-1.508-7.6-1.508h-7.667Z" transform="translate(773.302 419.588)" fill="#171717"/>
  <path id="Path_149" data-name="Path 149" d="M-442.75-419.2a6.663,6.663,0,0,1,6.85,6.41,6.663,6.663,0,0,1-6.85,6.41,6.663,6.663,0,0,1-6.85-6.41,6.583,6.583,0,0,1,6.85-6.41Z" transform="translate(680.939 421.148)" fill="#171717" fill-rule="evenodd"/>
  <path id="Path_150" data-name="Path 150" d="M-422.3-359.711c2.011-2.011,4.085-3.959,6.1-5.97,2.2,3.771,14.392,5.656,14.329.314-.063-6.348-20.174-1.7-18.414-15.649,1.006-8.107,10.118-10.684,14.706-10.684a18.019,18.019,0,0,1,12.255,4.274c-1.76,2.074-3.519,3.9-5.342,5.97-.88-1.571-11.5-4.776-12.632.251-1.068,4.839,7.919,3.708,12.946,5.719,4.211,1.634,6.662,4.336,6.159,9.867-.691,7.165-6.348,11.375-15.649,11.312-2.954,0-9.616-.817-14.455-5.4Z" transform="translate(670.796 410.931)" fill="#171717" fill-rule="evenodd"/>
</svg>
