<svg xmlns="http://www.w3.org/2000/svg" width="199.618" height="46.523" viewBox="0 0 199.618 46.523"><path d="M-583.18,933.5a21.773,21.773,0,0,0-5.594.642,8.959,8.959,0,0,0,0,4.127,20.953,20.953,0,0,1,4.769-.55c2.66,0,3.943,1.1,3.943,3.3v.184c-.825-.092-1.742-.184-2.384-.184-4.4,0-8.254,1.559-8.254,5.869,0,4.769,3.393,6.42,8.437,6.42a28.932,28.932,0,0,0,7.245-1.1V941.387C-575.018,936.16-577.861,933.592-583.18,933.5Zm3.21,15.5a13.169,13.169,0,0,1-2.2.183c-2.385,0-3.668-.734-3.668-2.384s1.284-2.293,3.668-2.384c.825,0,1.742.092,2.2.092Z" transform="translate(682.928 -915.005)" fill="#171717"/><path d="M-593.8,933.8a6.185,6.185,0,0,0-5.227,2.66,12.009,12.009,0,0,0-.55-2.476,7.208,7.208,0,0,0-2.109-.184,12.858,12.858,0,0,0-2.109.184v18.892a10.884,10.884,0,0,0,2.568.183,18.6,18.6,0,0,0,2.568-.183v-9.263c0-3.668,1.926-5.594,4.494-5.594a11.088,11.088,0,0,1,1.742.092,10.854,10.854,0,0,0,.092-4.219C-592.612,933.892-593.345,933.8-593.8,933.8Z" transform="translate(684.014 -915.03)" fill="#171717"/><path d="M-617.221,932.837a9.218,9.218,0,0,0-3.852.826V924.4a14.283,14.283,0,0,0-4.31,2.385,2.255,2.255,0,0,0-.917,1.834v22.836a21.469,21.469,0,0,0,6.878,1.1c6.786,0,10.638-4.127,10.638-10.088C-608.875,936.506-611.627,932.837-617.221,932.837Zm-1.926,15.5a6.867,6.867,0,0,1-1.926-.183V937.79a6.862,6.862,0,0,1,3.026-.55c2.568,0,3.943,1.834,3.943,5.136C-614.194,945.86-615.754,948.336-619.147,948.336Z" transform="translate(685.88 -914.251)" fill="#171717"/><path d="M-558.32,928.527v4.585a9.354,9.354,0,0,0-2.751-.275c-5.686,0-9.629,3.852-9.629,10,0,6.236,3.852,9.721,9.721,9.721a23.944,23.944,0,0,0,7.8-1.192V924.4a14.282,14.282,0,0,0-4.31,2.385A1.906,1.906,0,0,0-558.32,928.527Zm0,19.442a6.564,6.564,0,0,1-2.2.275c-3.393,0-4.769-2.293-4.769-5.5,0-3.668,1.284-5.869,4.677-5.869a7.818,7.818,0,0,1,2.293.275Z" transform="translate(681.269 -914.251)" fill="#171717"/><path d="M-517.671,941.562l-2.109-.917c-1.192-.459-1.926-.917-1.926-1.743,0-1.192,1.1-1.467,2.476-1.467a15.329,15.329,0,0,1,4.861.825,9.082,9.082,0,0,0,0-3.852,14.187,14.187,0,0,0-5.594-1.009c-4.035,0-7.062,2.2-7.062,5.411,0,2.935,1.284,4.4,4.769,5.778l1.651.642c1.559.642,2.018,1.009,2.018,2.018,0,1.467-1.467,1.743-2.751,1.743a17.383,17.383,0,0,1-5.686-1.1,7.532,7.532,0,0,0,0,4.035,14.261,14.261,0,0,0,6.511,1.192c3.944,0,7.153-2.109,7.153-5.87C-513.36,944.313-514.736,942.846-517.671,941.562Z" transform="translate(677.671 -914.997)" fill="#171717"/><path d="M-500.171,948.9c-2.568,0-4.31-2.018-4.31-5.594,0-3.393,1.376-5.594,4.31-5.594a8.151,8.151,0,0,1,3.3.642,11.462,11.462,0,0,1,1.834-3.668,11.717,11.717,0,0,0-5.778-1.284c-5.686,0-8.987,4.035-8.987,9.9,0,6.053,3.393,9.9,9.263,9.9a11.32,11.32,0,0,0,5.686-1.284,11.5,11.5,0,0,1-1.926-3.668A6.921,6.921,0,0,1-500.171,948.9Z" transform="translate(676.22 -914.997)" fill="#171717"/><path d="M-484.321,933.4c-5.778,0-9.079,3.943-9.079,9.9,0,6.053,3.393,9.813,9.079,9.813,5.869,0,9.079-3.852,9.079-9.9C-475.242,937.344-478.452,933.4-484.321,933.4Zm0,15.591c-2.843,0-3.76-2.293-3.76-5.686,0-3.21.825-5.778,3.76-5.778s3.76,2.384,3.76,5.778C-480.469,946.789-481.478,948.991-484.321,948.991Z" transform="translate(674.86 -914.997)" fill="#171717"/><path d="M-539.312,933.5c-5.594,0-8.987,3.76-8.987,10s3.668,9.721,9.9,9.721a14.267,14.267,0,0,0,5.869-1.1,9.964,9.964,0,0,0,0-4.035,19.066,19.066,0,0,1-5.319.917c-2.843,0-4.86-1.1-5.319-4.127h11.739a12.129,12.129,0,0,0,.183-2.66C-531.334,936.618-534.452,933.5-539.312,933.5Zm-3.943,7.612c.367-2.293,1.743-3.668,3.852-3.668,2.293,0,3.3,1.559,3.3,3.668Z" transform="translate(679.412 -915.005)" fill="#171717"/><path d="M-570.994,837.609a57.83,57.83,0,0,0-9.016.774,17.122,17.122,0,0,1,13.5-6.582,17.614,17.614,0,0,1,10.841,3.761c.5.387.885.442,1.272.055s.332-.719-.055-1.217a19.041,19.041,0,0,0-14.935-6.8,18.971,18.971,0,0,0-17.479,12.335,39.2,39.2,0,0,0-6.527,2.71c-.553.277-.719.664-.553,1.106.166.387.553.553,1.106.387,1.659-.5,3.374-.885,5.144-1.272a16.347,16.347,0,0,0-.277,2.876,18.7,18.7,0,0,0,8.74,16.1c.553.332,1,.332,1.272-.055a.841.841,0,0,0-.166-1.217,16.291,16.291,0,0,1-5.31-12.114,15.5,15.5,0,0,1,1.328-6.417c1.77-.166,3.706-.277,5.808-.277,13.773,0,25.389,4.536,25.389,10.454,0,3.042-3.817,6.029-8.352,8.076-1.106.5-1.217.83-1.051,1.328A.861.861,0,0,0-559.1,862c7.965-2.6,13.939-6.914,13.939-12.059C-545.273,842.975-556.668,837.554-570.994,837.609Z" transform="translate(594.011 -827.594)" fill="#171717"/><path d="M-544.388,897.647V882.6a.616.616,0,0,0-1-.5l-3.817,2.213v14.105h4.093A.745.745,0,0,0-544.388,897.647Z" transform="translate(573.987 -851.899)" fill="#171717"/><path d="M-557.7,889.989v10.4a.5.5,0,0,0,.5.5h2.876V887.5l-2.876,1.659A.858.858,0,0,0-557.7,889.989Z" transform="translate(577.785 -854.363)" fill="#171717"/></svg>