<svg xmlns="http://www.w3.org/2000/svg" width="208.691" height="41.04" viewBox="0 0 208.691 41.04"><g transform="translate(0)"><path d="M-567.116,1213.914a8.71,8.71,0,0,0,4.88-8.152,9.026,9.026,0,0,0-2.607-6.655,8.812,8.812,0,0,0-6.6-2.607h-11.092a.147.147,0,0,0-.166.166v37.989a.147.147,0,0,0,.166.167h12.589a9.918,9.918,0,0,0,7.32-3.05,10.263,10.263,0,0,0,2.995-7.376,10.363,10.363,0,0,0-7.487-10.482m-14.142-15.972h9.816a7.483,7.483,0,0,1,7.82,7.82,7.4,7.4,0,0,1-2.218,5.546,7.608,7.608,0,0,1-5.6,2.163h-9.816Zm17.636,32.887a8.5,8.5,0,0,1-6.267,2.607H-581.2v-18.579h10.814a9.108,9.108,0,0,1,6.766,2.662,9.371,9.371,0,0,1,2.607,6.877,8.488,8.488,0,0,1-2.607,6.433" transform="translate(668.827 -1195.28)" fill="#171717"/><path d="M-711.879,1221.641a6.968,6.968,0,0,1-4.714,1.719,6.985,6.985,0,0,1-5.546-2.385,8.969,8.969,0,0,1-2.163-6.267,9.108,9.108,0,0,1,2.107-6.267,7.023,7.023,0,0,1,5.6-2.385,7.23,7.23,0,0,1,4.548,1.608,8.583,8.583,0,0,1,2.884,4.16h13.144a19.255,19.255,0,0,0-6.71-12.7,20.746,20.746,0,0,0-13.92-4.825,22.5,22.5,0,0,0-10.981,2.662,19.458,19.458,0,0,0-7.653,7.321A20.437,20.437,0,0,0-738,1214.819a20.58,20.58,0,0,0,2.717,10.537,19.455,19.455,0,0,0,7.653,7.32,22.653,22.653,0,0,0,10.981,2.662,20.327,20.327,0,0,0,14.086-5.047,19.639,19.639,0,0,0,6.655-13.144h-13.366a8.224,8.224,0,0,1-2.606,4.492" transform="translate(738 -1194.3)" fill="#171717"/><path d="M-628.428,1212.017a14.07,14.07,0,0,0-10.038-3.66c-.444,0-1,0-1.719.055l7.265-11.813H-645.9l-6.156,10.038a40.618,40.618,0,0,0-3.827,7.875,21.558,21.558,0,0,0-1.22,7.154,13.527,13.527,0,0,0,4.548,10.593,16.964,16.964,0,0,0,11.757,4.1c4.88,0,8.818-1.331,11.813-4.049a13.741,13.741,0,0,0,4.492-10.7,12.9,12.9,0,0,0-3.938-9.594m-8.762,13.088a4.933,4.933,0,0,1-3.66,1.387,4.722,4.722,0,0,1-3.6-1.387,4.89,4.89,0,0,1-1.387-3.6,4.934,4.934,0,0,1,1.387-3.661,4.934,4.934,0,0,1,3.6-1.442,4.973,4.973,0,0,1,3.66,1.442,4.934,4.934,0,0,1,1.386,3.661,5.121,5.121,0,0,1-1.386,3.6" transform="translate(701.966 -1195.324)" fill="#171717"/><path d="M-380.563,1234.6h0l-14.752-20.686,14.7-17.137c0-.055.055-.055.055-.111a.147.147,0,0,0-.166-.166h-1.386c-.055,0-.111,0-.111.055l-20.187,23.57v-23.459a.147.147,0,0,0-.166-.166h-1.054a.147.147,0,0,0-.166.166v37.989a.147.147,0,0,0,.166.166h1.054a.147.147,0,0,0,.166-.166v-12.479l6.211-7.154,14.086,19.743a.2.2,0,0,0,.166.055h1.331a.147.147,0,0,0,.166-.167c-.055,0-.111,0-.111-.055" transform="translate(589.143 -1195.28)" fill="#171717"/><path d="M-441.859,1196.5h-1.054a.147.147,0,0,0-.166.166v34.773l-25.178-34.884c-.055-.055-.055-.055-.111-.055h-.665a.147.147,0,0,0-.166.166v37.989a.147.147,0,0,0,.166.166h1.054a.147.147,0,0,0,.166-.166v-35.05l25.345,35.161c.055.055.055.055.166.055h.5a.147.147,0,0,0,.166-.166v-37.989a.248.248,0,0,0-.222-.166" transform="translate(618.273 -1195.279)" fill="#171717"/><path d="M-504.563,1234.7l-14.419-37.989c0-.055-.111-.111-.166-.111h-.665c-.055,0-.111.056-.166.111L-534.4,1234.7v.056a.147.147,0,0,0,.166.166h1.109c.055,0,.111-.055.166-.111l4.437-11.757h18.079l4.437,11.757c0,.056.111.111.166.111h1.109a.147.147,0,0,0,.166-.166s0-.056,0-.056m-23.459-13.032,8.541-22.35,8.541,22.35Z" transform="translate(647.314 -1195.324)" fill="#171717"/></g></svg>