<svg id="Group_9" data-name="Group 9" xmlns="http://www.w3.org/2000/svg" width="330.826" height="50.717" viewBox="0 0 330.826 50.717">
  <path id="Path_151" data-name="Path 151" d="M-809.2,161.706V135.185c0-3.331-.126-4.9-2.7-4.9H-813.1V128.9h13.009c6.159,0,9.678,1.634,9.616,6.787-.063,2.64-2.954,6.41-7.165,7.919,3.959.754,8.107,4.965,8.107,9.113,0,7.793-6.662,8.987-11.752,8.987H-809.2Zm4.274-18.414h3.142c4.714,0,7.165-4.462,7.165-6.787,0-6.159-5.028-6.6-10.244-6.222v13.009Zm0,13.512c0,1.948,2.577,3.331,4.4,3.582a6.3,6.3,0,0,0,7.165-6.222c0-5.719-5.091-9.616-9.239-9.427-.691.063-1.823,0-2.262.063v12Zm51.849-14.58a13.405,13.405,0,0,1,9.364-4.714,5.568,5.568,0,0,1,3.268.943,6.406,6.406,0,0,1,2.2,3.142,12.849,12.849,0,0,1,.628,4.525v9.993a8.3,8.3,0,0,0,.377,3.017,2.286,2.286,0,0,0,.88,1.006,5.648,5.648,0,0,0,2.451.377v.943h-11.564v-.943h.5a4.6,4.6,0,0,0,2.451-.5,2.287,2.287,0,0,0,.88-1.445,14.272,14.272,0,0,0,.126-2.388V146.56a9.6,9.6,0,0,0-.817-4.651,3.382,3.382,0,0,0-3.017-1.445,12,12,0,0,0-7.73,3.331v12.444a8.561,8.561,0,0,0,.251,2.891,2.1,2.1,0,0,0,1.005,1.068,7.667,7.667,0,0,0,2.828.314v.943h-11.627v-.943h.5a2.741,2.741,0,0,0,2.388-.88,6.437,6.437,0,0,0,.628-3.457V144.8c0-2.325-1.571-3.582-4.085-4.336l8.044-3.142v4.9Zm39.594,1.068c-1.068-1.7-3.205-4.211-6.159-4.336-5.028-.251-6.913,5.153-6.913,9.113-.063,7.416,2.64,12,9.113,12.192a11.562,11.562,0,0,0,6.1-1.634l.063,2.074c-2.577,1.571-4.965,1.823-8.3,1.823-6.913,0-11.438-5.4-11.438-11.815,0-6.976,4.714-13.2,12.507-13.2,2.388,0,6.41.817,7.982,2.765l-2.954,3.017Zm17.094-6.033c6.473,0,11.752,5.656,11.752,12.569S-689.92,162.4-696.394,162.4s-11.752-5.656-11.752-12.569,5.216-12.569,11.752-12.569Zm0,1.445c4.085,0,7.353,4.965,7.353,11.124s-3.268,11.124-7.353,11.124-7.353-4.965-7.353-11.124c0-6.1,3.268-11.124,7.353-11.124Zm-88.111,6.6c0-5.4,5.719-7.982,9.239-7.982a10.924,10.924,0,0,1,5.091,1.068c1.005.5,1.32,1.32,1.76,2.451a13.762,13.762,0,0,1,.44,4.462l.126,12c.063,2.954,3.582,3.017,4.462,2.7l.063,1.131a6.427,6.427,0,0,1-4.211,1.32c-2.451-.314-3.771-2.577-4.022-4.588-1.634,2.074-4.588,4.588-7.982,4.588-2.954,0-5.593-2.011-5.468-6.159.189-5.593,9.616-7.227,13.2-8.547v-2.765c0-3.519-.44-5.845-4.336-5.845-2.828,0-4.211,1.194-3.959,4.525l-4.4,1.634Zm12.821,9.176v-5.153c-2.325.943-6.913,2.074-8.422,4.211a4.649,4.649,0,0,0-.063,4.839c2.451,3.582,8.484.189,8.484-3.9Z" transform="translate(813.1 -128.837)" fill="#171717" fill-rule="evenodd"/>
  <path id="Path_152" data-name="Path 152" d="M-567.266,145.266c0-5.4,5.719-7.982,9.238-7.982a10.924,10.924,0,0,1,5.091,1.068c1.006.5,1.32,1.32,1.76,2.451a13.762,13.762,0,0,1,.44,4.462l.126,12c.063,2.954,3.582,3.017,4.462,2.7l.063,1.131a6.426,6.426,0,0,1-4.211,1.32c-2.451-.314-3.771-2.577-4.022-4.588-1.634,2.074-4.588,4.588-7.982,4.588-2.954,0-5.593-2.011-5.468-6.159.189-5.593,9.616-7.227,13.2-8.547v-2.765c0-3.519-.44-5.845-4.336-5.845-2.828,0-4.211,1.194-3.959,4.525l-4.4,1.634Zm12.758,9.176v-5.153c-2.325.943-6.913,2.074-8.421,4.211a4.649,4.649,0,0,0-.063,4.839c2.514,3.582,8.484.189,8.484-3.9Zm-44.558,7.227V134.645c0-4.588-.566-4.336-3.834-4.336v-1.445h12.255c11.25,0,18.6,3.205,18.6,16.214,0,7.982-5.028,16.592-17.346,16.592Zm4.274-4.839c.628,2.891,4.588,3.331,5.97,3.331,7.29,0,12.318-5.028,12.318-14.895a15.206,15.206,0,0,0-3.959-10.747c-2.64-2.765-5.028-4.525-14.266-4.336V156.83Zm51.974,10.558a6.861,6.861,0,0,0,4.274.314c3.9-1.257,5.153-3.394,6.662-6.662l-8.673-18.1c-1.006-2.137-1.634-3.519-3.708-3.582v-1.383h9.741v1.383h-.566c-2.137,0-2.137,1.068-.817,3.9l6.1,13.2,6.348-13.826c.754-1.7,1.068-3.331-1.76-3.331v-1.32h7.29v1.32c-1.131,0-2.011-.063-3.645,3.331L-532.449,165.5c-1.823,3.9-5.782,7.479-12.444,5.4l2.074-3.519Zm74.6-29.412h9.8v1.32h-.691c-2.325,0-1.885,1.571-1.068,3.394l6.6,14.266,5.908-14.706c.691-1.76.691-2.828-2.388-2.828v-1.383h8.044v1.383c-1.068,0-2.011-.063-3.205,2.765l-8.61,20.3h-1.508l-9.3-19.8c-1.068-2.262-1.383-3.079-3.645-3.268v-1.445Zm60.27-9.176v27.338a8.976,8.976,0,0,0,.314,2.891,2.086,2.086,0,0,0,1.006,1.068,5.462,5.462,0,0,0,2.451.377v.943h-11.5v-.943a7.87,7.87,0,0,0,2.514-.314,2.282,2.282,0,0,0,.943-1.068,7.851,7.851,0,0,0,.314-2.891V135.965c0-2.137-2.7-3.582-4.148-4.211l8.107-2.954Zm-73.719,8.421c6.473,0,11.752,5.656,11.752,12.569s-5.279,12.569-11.752,12.569-11.752-5.656-11.752-12.569,5.216-12.569,11.752-12.569Zm0,1.445c4.085,0,7.353,4.965,7.353,11.124s-3.268,11.124-7.353,11.124-7.353-4.965-7.353-11.124c0-6.1,3.268-11.124,7.353-11.124Zm42.61,6.6c0-5.4,5.719-7.982,9.238-7.982a10.925,10.925,0,0,1,5.091,1.068c1.006.5,1.32,1.32,1.76,2.451a13.764,13.764,0,0,1,.44,4.462l.126,12c.063,2.954,3.582,3.017,4.462,2.7l.063,1.131a6.426,6.426,0,0,1-4.211,1.32c-2.451-.314-3.771-2.577-4.022-4.588-1.634,2.074-4.588,4.588-7.982,4.588-2.954,0-5.593-2.011-5.468-6.159.189-5.593,9.616-7.227,13.2-8.547v-2.765c0-3.519-.44-5.845-4.336-5.845-2.828,0-4.211,1.194-3.959,4.525l-4.4,1.634Zm12.821,9.176v-5.153c-2.325.943-6.913,2.074-8.421,4.211a4.649,4.649,0,0,0-.063,4.839c2.451,3.582,8.484.189,8.484-3.9Zm-72.588-11.187c-1.068-1.7-3.205-4.211-6.159-4.336-5.028-.251-6.913,5.153-6.913,9.113-.063,7.416,2.64,12,9.113,12.192a11.562,11.562,0,0,0,6.1-1.634l.063,2.074c-2.577,1.571-4.965,1.823-8.3,1.823-6.913,0-11.438-5.4-11.438-11.815,0-6.976,4.714-13.2,12.506-13.2,2.388,0,6.41.817,7.982,2.765l-2.954,3.017Z" transform="translate(735.004 -128.8)" fill="#171717" fill-rule="evenodd"/>
  <path id="Path_153" data-name="Path 153" d="M-596.8,192.8h10.5v10.5h-10.5Z" transform="translate(732.738 -152.578)" fill="#171717" fill-rule="evenodd"/>
  <path id="Path_154" data-name="Path 154" d="M-580.1,192.8h10.558v10.5H-580.1Z" transform="translate(726.533 -152.578)" fill="#171717" fill-rule="evenodd"/>
</svg>
