<svg id="Group_6" data-name="Group 6" xmlns="http://www.w3.org/2000/svg" width="275.698" height="34.526" viewBox="0 0 275.698 34.526">
  <path id="Path_107" data-name="Path 107" d="M-678.12,1107.974c.566-2.7-.377-3.9-2.011-4.651a8.759,8.759,0,0,0-10.935,3.017,8.767,8.767,0,0,0,2.137,11.124c2.954,2.2,8.987,2.137,11.69-1.508-.628-.817-1.32-1.7-1.823-2.451a26.857,26.857,0,0,1-3.834,1.634,3.871,3.871,0,0,1-4.462-2.262,4.354,4.354,0,0,1,.5-5.279,4.011,4.011,0,0,1,4.588-1.005C-681.074,1107.095-679.691,1107.472-678.12,1107.974Z" transform="translate(765.089 -1093.697)" fill="#171717"/>
  <path id="Path_108" data-name="Path 108" d="M-414,1116.4a7.912,7.912,0,0,0,7.479,2.074,4.6,4.6,0,0,0,3.834-4.148c.251-2.137-.817-3.582-2.64-4.588-1.006-.566-2.137-.88-3.142-1.446-.5-.251-.754-.88-1.131-1.383.566-.314,1.257-.88,1.76-.817a22.239,22.239,0,0,1,3.394,1.005c.5-1.005,1.006-2.011,1.508-2.954a7.581,7.581,0,0,0-7.165-1.446,4.414,4.414,0,0,0-3.457,3.771A4.134,4.134,0,0,0-411.3,1111c1.131.628,2.388,1.068,3.457,1.7a4.948,4.948,0,0,1,1.131,1.383c-.628.314-1.257.88-1.823.817a31.437,31.437,0,0,1-3.645-1.257C-412.743,1114.515-413.309,1115.4-414,1116.4Z" transform="translate(661.731 -1093.639)" fill="#171717"/>
  <path id="Path_109" data-name="Path 109" d="M-658.982,1106.952c1.508.314,2.828.566,4.336.88,0-1.446.251-2.451-.063-3.268a2.718,2.718,0,0,0-1.7-1.634,91.839,91.839,0,0,0-9.3,0,2.225,2.225,0,0,0-1.571,1.508,15.735,15.735,0,0,0-.063,3.519c1.7-.377,2.954-.628,4.4-.943v11.627h3.959C-658.982,1114.556-658.982,1110.6-658.982,1106.952Z" transform="translate(755.881 -1093.806)" fill="#171717"/>
  <path id="Path_110" data-name="Path 110" d="M-730.437,1118.628h4.085c-.251-1.7-.126-3.017,1.634-3.771.88-.377,1.383-1.7,2.2-2.828-1.571-.063-2.7-.126-3.708-.189v-5.719c1.006.126,2.263-.126,2.451.314,1.068,1.823,2.514,1.005,4.022,1.005a11.42,11.42,0,0,0-.063-2.954c-.189-.629-.943-1.571-1.508-1.634-3.017-.126-6.033-.063-9.176-.063C-730.437,1108.258-730.437,1113.412-730.437,1118.628Z" transform="translate(779.321 -1093.792)" fill="#171717"/>
  <path id="Path_111" data-name="Path 111" d="M-579.036,1119.329v-16.34c-.251-.063-.44-.126-.691-.188a8.759,8.759,0,0,0-.754,2.388c-.063,3.331-.063,6.662-.063,9.993-3.08-3.645-5.719-7.416-8.359-11.124-.377-.566-1.194-.754-1.823-1.194a5.663,5.663,0,0,0-.5,1.76c-.063,4.148-.063,8.233,0,12.381a9.128,9.128,0,0,0,.251,1.76c.251.063.566.063.817.126a8.4,8.4,0,0,0,.628-2.388c.063-2.451,0-4.9.063-7.353,0-.817.063-1.571.126-2.388,3.017,3.582,5.531,7.165,8.107,10.747A10.157,10.157,0,0,0-579.036,1119.329Z" transform="translate(727.595 -1093.802)" fill="#171717"/>
  <path id="Path_112" data-name="Path 112" d="M-528.782,1119.08v-16.466c-.5.189-1.006.251-1.006.377-.251,4.022-.44,8.044-.691,12.318-.5-.691-.943-1.194-1.383-1.76-2.325-3.268-4.525-6.536-6.913-9.741a10.588,10.588,0,0,0-2.325-1.508v16.214l.943.189a7.069,7.069,0,0,0,.691-2.137c.063-3.394.063-6.85.063-10.244,3.08,3.645,5.656,7.353,8.359,11.061A13.856,13.856,0,0,0-528.782,1119.08Z" transform="translate(708.953 -1093.616)" fill="#171717"/>
  <path id="Path_113" data-name="Path 113" d="M-502.62,1115.772l-.754-.189c-3.519,2.514-6.6,2.64-9.05.377a7.13,7.13,0,0,1-1.131-8.736c2.263-3.708,7.416-3.9,9.49-.314.188.251.691.566.943.5s.691-.691.628-.88c-.44-.943-.817-2.137-1.571-2.577a9.234,9.234,0,0,0-4.148-1.068,7.466,7.466,0,0,0-7.667,5.216,8.749,8.749,0,0,0,3.017,9.867,8.429,8.429,0,0,0,9.553-.377A4.971,4.971,0,0,0-502.62,1115.772Z" transform="translate(699.76 -1093.827)" fill="#171717"/>
  <path id="Path_114" data-name="Path 114" d="M-486.729,1112.041c3.645-.628,3.645-.628,3.708-1.823h-3.708v-5.656c1.634.44,3.582-1.131,4.588,1.32a1.534,1.534,0,0,0,1.068-.251c.628-.754,0-2.577-.943-2.577-2.137-.126-4.274-.063-6.285-.063v15.9c2.2,0,4.211.063,6.222-.063.44,0,.943-.754,1.131-1.257a2.527,2.527,0,0,0-.377-1.571c-.063-.063-.88-.063-.943.126-1.006,2.451-2.891.943-4.462,1.257C-486.729,1115.434-486.729,1113.738-486.729,1112.041Z" transform="translate(689.336 -1093.867)" fill="#171717"/>
  <path id="Path_115" data-name="Path 115" d="M-616.729,1104.248c1.634.943,3.645-.88,4.525,1.571a2.912,2.912,0,0,0,1.194-.251c.126-1.068.44-2.388-1.131-2.514-2.074-.126-4.148-.063-6.159-.063v15.837c.314.063.566.126.88.189,1.634-2.011-.063-4.839.88-6.913,1.131-.88,3.205.754,3.9-1.7-1.508-.063-2.765-.189-4.085-.251C-616.729,1108.207-616.729,1106.51-616.729,1104.248Z" transform="translate(737.635 -1093.867)" fill="#171717"/>
  <path id="Path_116" data-name="Path 116" d="M-599.646,1102.7c-.251.063-.5.189-.754.251v15.712c.189.126.44.189.628.314.314-.5.817-1.005.817-1.508.063-4.4.063-8.861,0-13.261C-598.892,1103.706-599.394,1103.2-599.646,1102.7Z" transform="translate(730.985 -1093.764)" fill="#171717"/>
  <path id="Path_117" data-name="Path 117" d="M-470.4,1118.6a2.552,2.552,0,0,0,.566.314c.314-.44.943-.943.943-1.383.063-4.462.063-8.987,0-13.449,0-.44-.628-.943-.943-1.383a2.557,2.557,0,0,1-.566.314Z" transform="translate(682.686 -1093.764)" fill="#171717"/>
  <path id="Path_118" data-name="Path 118" d="M-565.742,1003.009a14.265,14.265,0,0,0-8.122,9.836c-.082.367-.857.694-1.347.735-1.143.122-2.408-.326-3.061,1.388h4.2c-1.02,4.816-1.8,9.387-3.061,13.836-.98,3.551-3.959,4.408-7.1,2.367-3.224-2.122-4.816-5.388-5.551-9.02a16.571,16.571,0,0,1,5.714-16.734c5.061-4.326,10.938-5.1,17.183-3.02C-566.517,1002.56-566.191,1002.764-565.742,1003.009Z" transform="translate(590.183 -1001.291)" fill="#171717"/>
  <path id="Path_119" data-name="Path 119" d="M-564.5,1039.509c5.388-2.612,7.143-7.592,8.367-12.857.286-1.143.326-2.326.694-3.428.408-1.265,0-1.959-1.184-2.286a4.117,4.117,0,0,1-.816-.49c2.571,0,4.857-.041,7.143,0,1.633.041,1.633.122,2.816-1.51h-7.51a67.256,67.256,0,0,1,2.286-6.694,3.28,3.28,0,0,1,4.408-1.755,9.978,9.978,0,0,1,3.837,2.449,17.035,17.035,0,0,1,2.082,18.856,17.1,17.1,0,0,1-16.612,9.224c-1.837-.163-3.673-.694-5.469-1.021A1.989,1.989,0,0,1-564.5,1039.509Z" transform="translate(574.982 -1006.568)" fill="#171717"/>
  <path id="Path_120" data-name="Path 120" d="M-678.148,1107.951c-1.508-.5-2.891-.88-4.211-1.383a3.937,3.937,0,0,0-4.588,1.005,4.447,4.447,0,0,0-.5,5.279,3.871,3.871,0,0,0,4.462,2.262,21.2,21.2,0,0,0,3.834-1.634c.5.691,1.194,1.571,1.823,2.451-2.7,3.645-8.673,3.708-11.689,1.508a8.842,8.842,0,0,1-2.137-11.124,8.6,8.6,0,0,1,10.935-3.017C-678.525,1104.055-677.582,1105.249-678.148,1107.951Z" transform="translate(765.117 -1093.673)" fill="#171717"/>
  <path id="Path_121" data-name="Path 121" d="M-391.8,1118.674c1.634-5.279,3.205-10.5,4.839-15.586a5.117,5.117,0,0,1,.566-.126c3.708-.189,3.771-.189,4.839,3.394q1.885,6.033,3.771,12.255c-2.137.566-3.645.44-4.274-1.948-.5-2.011-2.263-1.006-3.457-1.068-.628-.063-1.76.5-1.885,1.005C-388.029,1119.051-389.663,1119.051-391.8,1118.674Zm4.965-4.274c1.32-1.068,2.262-1.885,3.331-2.765-.314-1.068-.691-2.325-1.068-3.582h-.377C-385.515,1110-386.144,1111.949-386.835,1114.4Z" transform="translate(653.483 -1093.838)" fill="#171717"/>
  <path id="Path_122" data-name="Path 122" d="M-700.885,1118.749c-2.074.44-3.708.377-4.336-2.011-.126-.5-1.068-.943-1.76-1.068a17.61,17.61,0,0,0-3.142-.063c-1.634,3.708-1.634,3.708-4.776,3.017,1.508-4.9,2.954-9.8,4.588-14.58.188-.566,1.7-.943,2.64-.943.754,0,2.011.44,2.137,1.005C-703.839,1108.882-702.393,1113.784-700.885,1118.749Zm-9.113-4.085c1.257-1.068,2.262-1.948,3.394-3.017-.314-1.068-.691-2.325-1.068-3.582a1.224,1.224,0,0,0-.44.063C-708.741,1110.2-709.307,1112.339-710,1114.664Z" transform="translate(773.525 -1093.913)" fill="#171717"/>
  <path id="Path_123" data-name="Path 123" d="M-648.9,1118.709c1.571-5.091,3.017-9.93,4.651-14.706a2.037,2.037,0,0,1,1.7-1.005c1.068,0,2.828.189,3.017.754,1.7,4.9,3.142,9.867,4.714,14.895-2.262.628-3.645.251-4.274-2.074-.5-1.885-2.2-.88-3.331-.943-.691-.063-1.885.5-2.011.943C-645,1119.086-646.638,1119.086-648.9,1118.709Zm7.039-11.312c-.754,2.64-1.383,4.714-2.137,7.165,1.32-1.131,2.263-1.948,3.394-2.954C-640.918,1110.413-641.3,1109.156-641.861,1107.4Z" transform="translate(749.004 -1093.873)" fill="#171717"/>
  <path id="Path_124" data-name="Path 124" d="M-414,1116.438c.628-.943,1.257-1.823,1.885-2.7a27.84,27.84,0,0,0,3.645,1.257c.5.126,1.194-.5,1.823-.817-.377-.44-.628-1.068-1.131-1.383-1.131-.628-2.325-1.068-3.457-1.7a4.216,4.216,0,0,1-2.262-4.525,4.414,4.414,0,0,1,3.457-3.771,7.581,7.581,0,0,1,7.165,1.446c-.5,1.005-1.006,2.011-1.508,2.954a18.733,18.733,0,0,0-3.394-1.005c-.566-.063-1.194.5-1.76.817.377.44.628,1.068,1.131,1.383,1.006.566,2.137.88,3.142,1.446a4.306,4.306,0,0,1,2.64,4.588,4.6,4.6,0,0,1-3.834,4.148A8.393,8.393,0,0,1-414,1116.438Z" transform="translate(661.731 -1093.676)" fill="#171717"/>
  <path id="Path_125" data-name="Path 125" d="M-658.982,1106.952v11.689h-3.959v-11.627c-1.445.314-2.7.566-4.4.943a15.845,15.845,0,0,1,.063-3.519,2.485,2.485,0,0,1,1.571-1.508,91.839,91.839,0,0,1,9.3,0,2.718,2.718,0,0,1,1.7,1.634c.314.817.063,1.823.063,3.268C-656.153,1107.518-657.473,1107.266-658.982,1106.952Z" transform="translate(755.881 -1093.806)" fill="#171717"/>
  <path id="Path_126" data-name="Path 126" d="M-730.4,1118.7v-15.712c3.142,0,6.159-.063,9.176.063.566,0,1.32.943,1.508,1.634a11.342,11.342,0,0,1,.063,2.954c-1.508,0-2.954.817-4.022-1.005-.251-.377-1.508-.189-2.451-.314v5.719c1.006.063,2.137.126,3.708.188-.817,1.131-1.32,2.388-2.2,2.828-1.76.754-1.948,2.011-1.634,3.771C-727.823,1118.7-729.017,1118.7-730.4,1118.7Z" transform="translate(779.284 -1093.867)" fill="#171717"/>
  <path id="Path_127" data-name="Path 127" d="M-579.045,1119.329a12.306,12.306,0,0,1-2.263-1.823c-2.577-3.582-5.091-7.165-8.107-10.747-.063.817-.126,1.571-.126,2.388,0,2.451.063,4.9-.063,7.353a11.181,11.181,0,0,1-.628,2.388c-.251-.063-.566-.063-.817-.126a14.819,14.819,0,0,1-.251-1.76v-12.381a6.825,6.825,0,0,1,.5-1.76c.628.377,1.445.629,1.823,1.194,2.7,3.708,5.279,7.416,8.359,11.124,0-3.331-.063-6.662.063-9.993a8.759,8.759,0,0,1,.754-2.388c.251.063.44.125.691.188C-579.045,1108.2-579.045,1113.421-579.045,1119.329Z" transform="translate(727.604 -1093.802)" fill="#171717"/>
  <path id="Path_128" data-name="Path 128" d="M-528.782,1119.043a12.91,12.91,0,0,1-2.262-1.76c-2.7-3.645-5.279-7.416-8.359-11.061,0,3.394.063,6.85-.063,10.244a6.553,6.553,0,0,1-.691,2.137l-.943-.189V1102.2a10.588,10.588,0,0,1,2.325,1.508c2.325,3.205,4.588,6.473,6.913,9.741.377.566.817,1.068,1.383,1.76.251-4.274.44-8.3.691-12.318,0-.126.5-.189,1.006-.377C-528.782,1107.982-528.782,1113.2-528.782,1119.043Z" transform="translate(708.953 -1093.579)" fill="#171717"/>
  <path id="Path_129" data-name="Path 129" d="M-460.44,1112.5c0,1.823.063,3.582-.063,5.279,0,.377-.44.691-.691,1.068-.314-.377-.943-.691-.943-1.068-.063-4.839-.063-9.678-.063-14.706,2.2,0,4.274-.126,6.348.063a3.732,3.732,0,0,1,3.394,2.954,4.773,4.773,0,0,1-1.131,4.839,13.228,13.228,0,0,1-1.383,1.068c1.131,2.263,2.2,4.4,3.268,6.6a3.149,3.149,0,0,1-.44.5,8.594,8.594,0,0,1-1.885-1.383,11.881,11.881,0,0,1-1.571-3.079C-456.355,1112.188-458.052,1111.874-460.44,1112.5Zm.063-1.508c1.194-.126,2.388-.188,3.582-.314a2.711,2.711,0,0,0,2.765-2.765c.126-1.571-.377-3.017-2.074-3.268a24.077,24.077,0,0,0-4.274-.063Z" transform="translate(679.639 -1093.889)" fill="#171717"/>
  <path id="Path_130" data-name="Path 130" d="M-502.625,1115.7c-.251.566-.314,1.32-.691,1.7a8.541,8.541,0,0,1-9.553.377,8.656,8.656,0,0,1-3.017-9.867,7.418,7.418,0,0,1,7.667-5.216,11.9,11.9,0,0,1,4.148,1.068c.754.44,1.131,1.634,1.571,2.577a1.091,1.091,0,0,1-.628.88,1.043,1.043,0,0,1-.943-.5c-2.074-3.582-7.227-3.394-9.49.314a7.129,7.129,0,0,0,1.131,8.736q3.676,3.488,9.05-.377C-503.128,1115.509-502.877,1115.572-502.625,1115.7Z" transform="translate(699.765 -1093.753)" fill="#171717"/>
  <path id="Path_131" data-name="Path 131" d="M-566.6,1118.809c1.131-3.142,2.262-6.1,3.331-8.987.691-1.823,1.257-3.708,2.074-5.468a2.441,2.441,0,0,1,1.383-1.257c.314-.063,1.068.628,1.257,1.131,1.823,4.776,3.582,9.616,5.342,14.392l-.5.5c-.566-.566-1.571-1.068-1.7-1.7-.566-3.394-2.7-3.834-5.593-3.582-1.571.126-2.262.5-2.765,2.011C-564.149,1117.05-564.086,1119-566.6,1118.809Zm6.725-13.889c-.943,2.765-1.76,5.028-2.514,7.29h5.091C-558.179,1109.822-559,1107.623-559.875,1104.92Z" transform="translate(718.427 -1093.911)" fill="#171717"/>
  <path id="Path_132" data-name="Path 132" d="M-429.294,1119.222l-1.7-2.451c-.566-.88-.817-2.514-1.508-2.64a11.8,11.8,0,0,0-5.342,0c-.691.188-.943,1.885-1.571,2.891a24.818,24.818,0,0,1-1.634,2.2c-.251-.126-.5-.314-.754-.44.5-1.383.943-2.765,1.445-4.148,1.257-3.457,2.514-6.913,3.9-10.37a2.05,2.05,0,0,1,1.32-1.068c.251-.063.943.377,1.131.754,1.885,4.9,3.708,9.867,5.531,14.769A1.929,1.929,0,0,0-429.294,1119.222Zm-3.205-6.787c-.88-2.451-1.7-4.588-2.64-7.353-1.006,2.891-1.823,5.153-2.577,7.353Z" transform="translate(672.06 -1093.947)" fill="#171717"/>
  <path id="Path_133" data-name="Path 133" d="M-486.729,1112v5.279c1.634-.314,3.519,1.194,4.462-1.257a1.647,1.647,0,0,1,.943-.126,3.035,3.035,0,0,1,.377,1.571c-.126.5-.691,1.257-1.131,1.257-2.011.126-4.022.063-6.222.063v-15.9c2.011,0,4.211-.063,6.285.063.943.063,1.571,1.885.943,2.577a1.535,1.535,0,0,1-1.068.251c-1.006-2.451-2.954-.88-4.588-1.32v5.656h3.708C-483.021,1111.375-483.021,1111.375-486.729,1112Z" transform="translate(689.336 -1093.829)" fill="#171717"/>
  <path id="Path_134" data-name="Path 134" d="M-616.729,1104.233v5.908c1.257.063,2.514.126,4.085.251-.691,2.451-2.765.817-3.9,1.7-.943,2.074.691,4.9-.88,6.913-.314-.063-.566-.126-.88-.189v-15.837c2.011,0,4.148-.126,6.159.063,1.634.126,1.32,1.446,1.131,2.514,0,.126-1.131.314-1.194.251C-613.084,1103.353-615.095,1105.175-616.729,1104.233Z" transform="translate(737.635 -1093.852)" fill="#171717"/>
  <path id="Path_135" data-name="Path 135" d="M-599.609,1102.7c.251.5.754,1.006.754,1.508.063,4.4.063,8.861,0,13.261,0,.5-.566,1.005-.817,1.508-.189-.126-.44-.188-.628-.314v-15.712C-600.111,1102.889-599.86,1102.763-599.609,1102.7Z" transform="translate(730.948 -1093.764)" fill="#171717"/>
  <path id="Path_136" data-name="Path 136" d="M-470.4,1118.6v-15.586a2.547,2.547,0,0,1,.566-.314c.314.44.943.943.943,1.383.063,4.462.063,8.987,0,13.449,0,.44-.628.943-.943,1.383A1.214,1.214,0,0,1-470.4,1118.6Z" transform="translate(682.686 -1093.764)" fill="#171717"/>
</svg>
