<svg xmlns="http://www.w3.org/2000/svg" width="110.422" height="110.485" viewBox="0 0 110.422 110.485">
  <g id="Group_12" data-name="Group 12" transform="translate(0 0)">
    <path id="Subtraction_1" data-name="Subtraction 1" d="M-1511.849-1806.234l-70.2-.063a20.216,20.216,0,0,1-20.111-20.111l.063-70.2a19.845,19.845,0,0,1,1.588-7.809,20.123,20.123,0,0,1,4.327-6.395,20.173,20.173,0,0,1,6.413-4.321,20.013,20.013,0,0,1,7.845-1.587l70.137.063a19.765,19.765,0,0,1,7.808,1.6,20.172,20.172,0,0,1,6.405,4.35,20.071,20.071,0,0,1,4.287,6.381,19.639,19.639,0,0,1,1.548,7.782v70.2a19.862,19.862,0,0,1-1.587,7.809,20.147,20.147,0,0,1-4.321,6.395,20.15,20.15,0,0,1-6.395,4.321A19.861,19.861,0,0,1-1511.849-1806.234Zm-16.78-49.9-.063,19.168c0,3.55.965,6.293,2.867,8.154a10.1,10.1,0,0,0,7.251,2.593h.022l.182,0a10.713,10.713,0,0,0,5.269-1.285,9.249,9.249,0,0,0,3.576-3.556h.063v4.085h7.479v-29.161h-7.731v16.843a6.594,6.594,0,0,1-2.05,5.263,6.145,6.145,0,0,1-3.983,1.4,5.3,5.3,0,0,1-3.464-1.005c-1.079-.877-1.626-2.357-1.626-4.4v-18.1Zm-18.854,5.405a8.643,8.643,0,0,1,3.331.495,2.9,2.9,0,0,1,1.823,2.9c0,1.286-.9,2.047-2.766,2.326l-7.039,1.005a10.929,10.929,0,0,0-6.229,2.789,8.742,8.742,0,0,0-2.506,6.512,7.978,7.978,0,0,0,2.875,6.5,9.894,9.894,0,0,0,6.175,1.979,12.262,12.262,0,0,0,9.615-4.21,13.332,13.332,0,0,0,.73,3.318l.024.075,6.725-.062c0-3.12-.06-5.494-.063-5.593V-1848.4h.063a7.3,7.3,0,0,0-4.328-6.952,17.564,17.564,0,0,0-7.487-1.532c-2.609,0-5.944.2-8.594,1.744a8.648,8.648,0,0,0-3.107,3.082,13.128,13.128,0,0,0-1.623,5.356h7.542a5.064,5.064,0,0,1,1.052-2.647A4.789,4.789,0,0,1-1547.483-1850.729Zm-28.344.062v17.723c0,2.222.432,3.585,1.445,4.557,1.213,1.163,3.351,1.728,6.536,1.728h1.005c1.256,0,2.468-.064,3.641-.126l0-5.845-.033,0a15.479,15.479,0,0,1-1.6.121c-3.268,0-3.268-.748-3.268-2.388l.062-15.775h4.839v-5.468h-4.839v-10.181h-7.792v10.181h-4.023v5.468Zm-16.026-15.711-.063,39.342h8.421l.063-39.342Zm76.61.063-3.331,6.285h5.594l5.719-6.285Z" transform="translate(1602.159 1916.719)" fill="#171717"/>
    <path id="Path_205" data-name="Path 205" d="M-548.916,390.771V387c-.754.628-2.074,1.131-5.342,1.571-2.954.5-5.342,1.257-5.342,4.4a3.433,3.433,0,0,0,3.645,3.519c3.457.063,7.039-2.137,7.039-5.719Z" transform="translate(608.746 -311.521)" fill="#171717" fill-rule="evenodd"/>
  </g>
</svg>
