<?xml version="1.0" encoding="utf-8"?>
<!-- Generator: Adobe Illustrator 26.3.1, SVG Export Plug-In . SVG Version: 6.00 Build 0)  -->
<svg version="1.1" id="Camada_1" xmlns="http://www.w3.org/2000/svg" xmlns:xlink="http://www.w3.org/1999/xlink" x="0px" y="0px"
	 viewBox="0 0 583.6 158.4" style="enable-background:new 0 0 583.6 158.4;" xml:space="preserve">
<style type="text/css">
	.st0{fill:##171717;}
	.st1{fill:##171717;}
</style>
<g>
	<path class="st0" d="M210.7,91.7c-4.1,8.9-8.2,17.4-12.1,26c-3.1,6.8-6.1,13.6-9.2,20.4c-1,2.1-4.6,3.4-6.6,2.3
		c-1.6-0.8-0.5-1.9-0.1-2.9c2.6-5.7,5.2-11.3,7.8-17c6.3-13.6,12.5-27.2,18.8-40.7c0.5-1,0.6-2.5,1.9-2.6c1.7-0.1,1.5,1.7,2,2.7
		c7.5,16.4,15,32.9,22.4,49.3c0.5,1.1,1.1,2.2,2,3.9c2.3-5,4.4-9.4,6.5-13.9c6.1-13.3,12.1-26.5,18.2-39.8c0.4-0.9,0.6-2.2,1.7-2.3
		c1.3,0,1.7,1.3,2.1,2.3c8.5,19,17.1,37.9,25.6,56.9c0.5,1.2,2.3,2.5,0.8,3.8c-1.3,1.2-5.7-0.2-6.5-1.9c-3.2-7-6.4-14-9.6-21.1
		c-4-8.7-7.9-17.4-12.2-26.8c-4.1,9-8,17.2-11.7,25.4c-3.3,7.2-6.7,14.5-9.9,21.8c-1.1,2.5-2.8,2.7-5,2.8c-2.4,0.1-3.8-0.5-4.9-2.9
		c-6.3-14.1-12.8-28.1-19.2-42.2C212.7,94.4,212.4,93,210.7,91.7z"/>
	<path class="st0" d="M475,108.9c0-9.5,0.1-19-0.1-28.4c0-2.8,0.9-3.6,3.6-3.6c9.5,0.2,19,0.1,28.5,0c2.3,0,3.3,0.6,3.3,3.1
		c0,2.7-1.2,3-3.5,3c-7.2-0.1-14.5,0.1-21.7-0.1c-3.4-0.1-4.4,1.1-4.2,4.3c0.2,4.2,0.2,8.5,0,12.7c-0.1,2.4,0.7,3.3,3.2,3.2
		c7.4-0.1,14.7,0,22.1-0.1c2.2,0,4.1-0.2,4,3.1c0,3.2-1.8,2.9-3.9,2.9c-7.2,0-14.5,0.1-21.7-0.1c-2.7-0.1-3.8,0.8-3.7,3.6
		c0.1,6.1,0.1,12.2,0,18.3c-0.1,2.6,0.9,3.5,3.5,3.5c7.5-0.1,15,0,22.5-0.1c2.4,0,3.3,0.6,3.3,3.1c0,2.7-1.2,3-3.4,3
		c-9.5-0.1-19-0.1-28.5,0c-3,0.1-3.5-1.1-3.5-3.7C475.1,127.6,475,118.2,475,108.9z"/>
	<path class="st0" d="M332.7,91.3c-3,6.5-6,12.8-9,19.2c-4.3,9.4-8.6,18.8-12.9,28.2c-0.7,1.6-5.8,2.7-6.9,1.6
		c-0.9-0.9,0-1.6,0.3-2.3c5.3-11.7,10.7-23.3,16-35c3.6-7.9,7.3-15.9,10.9-23.8c0.4-0.9,0.5-2.1,1.8-2.1c1.1,0,1.3,1,1.6,1.8
		c9,20,18.1,39.9,27.1,59.9c0.2,0.4,0.3,0.9,0.4,1.4c-6.1,0.9-6.2,0.7-8.5-4.4c-6.6-14.6-13.3-29.2-20-43.8
		C333.4,91.8,333.2,91.7,332.7,91.3z"/>
	<path class="st0" d="M382,90.4c-0.1,2.8,0.9,5,2.9,7c4,4.1,8.8,7.3,13.1,11.1c5.2,4.6,9.1,9.7,8.9,17.3c-0.2,7.4-7.8,15.9-18,15.3
		c-7.3-0.5-12-4.8-15.7-10.6c-1.4-2.1-0.2-3,1.4-4.1c1.8-1.3,2.7-0.9,3.8,0.9c1.6,2.8,3.6,5.4,6.8,6.8c4.8,2.1,10.5,0.6,13.6-3.6
		c2.9-3.9,2.3-8.8-1.3-12.9c-4-4.7-8.9-8.3-13.6-12.2c-4.9-4-8.4-8.6-8-15.5c0.4-9.9,11.4-16,20.6-11.9c3.5,1.6,6.1,4.1,8.4,7.2
		c1.4,1.8,0.4,2.6-0.9,3.1c-1.2,0.4-2,3.6-4.1,0.7c-2.5-3.6-5.7-6.3-10.6-5.8C385,83.3,382.1,86.3,382,90.4z"/>
	<path class="st0" d="M437.5,111.8c0-8.5-0.1-17,0-25.4c0-2.5-0.6-3.7-3.3-3.5c-2.4,0.2-4.7-0.1-7.1,0.1c-2.5,0.2-3.2-0.7-3.2-3.2
		c0-2.4,0.9-3,3.1-2.9c9.2,0.1,18.5,0.1,27.7,0c2.2,0,3.1,0.5,3.1,2.9c0,2.4-0.7,3.4-3.2,3.2c-2.2-0.2-4.5,0.2-6.7-0.1
		c-3.1-0.3-3.8,0.9-3.7,3.8c0.1,16.7,0,33.4,0.1,50.1c0,2.9-0.8,4-3.8,3.8c-2.3-0.1-3-0.8-3-3C437.6,129,437.5,120.4,437.5,111.8z"
		/>
	<path class="st0" d="M243.9,42.2c0,6.6,0,13,0,19.7c-1.7-0.8-1.3-1.9-1.3-2.8c0-6,0-12,0-17.9c0-1-0.6-2.5,0.8-2.9
		c1.5-0.5,2.1,0.9,2.9,1.9c4.3,5.9,8.6,11.7,13.6,18.5c0-6.7,0-12.2,0-17.8c0-1-0.6-2.6,1.2-2.6c1.4,0,1,1.5,1,2.4
		c0,6.2,0,12.5,0,18.7c0,0.9,0.3,2.1-1,2.5c-1.4,0.4-2-0.7-2.7-1.6c-4.1-5.5-8.1-11-12.2-16.5C245.8,43.2,245.5,42.5,243.9,42.2z"/>
	<path class="st0" d="M286.8,60.4c2.9,0,5.4-0.9,7.3-3.1c0.7-0.8,1.6-1.5,2.5-0.5c0.8,0.9-0.4,1.6-0.9,2.1
		c-3.2,3.7-9.4,4.7-14.5,2.4c-4.8-2.1-7.7-7.4-7.1-12.8c0.6-5,4.8-9.7,9.7-10.6c4.4-0.8,8.4-0.1,11.7,3.1c0.6,0.6,2.1,1.1,1.1,2.3
		c-1,1.2-1.7-0.1-2.4-0.7c-4.9-4-10.8-3.9-14.7,0.1c-3,3.1-3.9,7.3-2.3,11C279,58.2,282.1,60.4,286.8,60.4z"/>
	<path class="st0" d="M570,139.3c-6.2-8.3-12.5-16.5-18.6-24.8c-0.7-1-2.1-2-1.7-3.1c0.5-1.4,2.2-0.7,3.4-0.7
		c2.9,0.1,5.5-0.8,7.9-1.9c7.2-3.1,9.7-10.4,9-16.9c-0.9-8-6.6-13.3-13.7-14.2c-7.3-1-14.7-0.5-22-0.7c-2.3-0.1-3,0.8-3,3
		c0.1,19.2,0.1,38.4,0,57.7c0,2.7,1.1,3.1,3.4,3.1c2.2,0,3.4-0.4,3.4-3.1c-0.2-7.5-0.1-15,0-22.5c0-1.3-0.9-3.2,1.3-3.7
		c1.8-0.4,2.6,0.7,3.6,2c5.8,7.8,12,15.3,17.5,23.3c2.7,4,5.9,4.3,10.2,3.6C570.2,139.7,570.1,139.5,570,139.3z M540.3,104.7
		c-1.8,0-2.4-0.8-2.4-2.5c0.1-2.7,0-5.5,0-8.2c0-0.6,0-1.2,0-1.9c0-9.5,0-9.5,9.6-9.1c2.5,0.1,5,0.4,7.4,0.7c5.7,0.9,8.8,5,8.6,10.8
		c-0.2,5.5-4.2,9.6-10.1,10C549,104.8,544.6,104.6,540.3,104.7z"/>
	<path class="st0" d="M196.1,49.9c-1.2-0.8-0.2-1.4,0.3-2.1c3.1-5,0.6-9.6-5.2-9.8c-2.1-0.1-4.2,0.1-6.4,0c-2.3-0.2-3.1,0.6-3,3
		c0.1,4.7,0,9.5,0,14.2c0,6.9,0,6.9,6.9,6.9c0.4,0,0.7,0,1.1,0c3.2,0,6.8,0.5,8.5-3.2C200,55.4,199.4,52.3,196.1,49.9z M184.2,41.4
		c1-2.5,3.3-0.7,4.7-1.3c2.9,0.1,6-0.6,6.5,3.5c0.3,2.9-0.9,4.5-3.8,4.8c-0.9,0.1-1.7,0-2.6,0C184.4,48.5,182.5,45.8,184.2,41.4z
		 M193.4,59.9c-1.2,0.3-2.4,0.4-3.7,0.4c-6.4,0-5.2,0.7-5.7-5.5c-0.4-5,2.6-4.3,5.4-4.2c3.2-0.2,6.5-0.4,7.3,3.5
		C197.3,56.9,196.5,59.2,193.4,59.9z"/>
	<path class="st0" d="M320.1,37.6c-7.4,0-12.4,5.2-12.4,12.8c0,7,5.3,12.3,12.2,12.3c7.4,0,12.7-5.3,12.6-12.7
		C332.6,42.7,327.4,37.6,320.1,37.6z M320.1,60.4c-6.1,0-10.2-4.2-10.1-10.5c0-6,4.6-10.6,10.4-10.4c5.6,0.2,10,4.7,10,10.5
		C330.3,56.2,326.2,60.4,320.1,60.4z"/>
	<path class="st0" d="M229.7,59c-2.2-5.4-4.4-10.8-6.8-16.2c-0.8-1.8-0.6-4.8-3.4-4.8c-2.9,0-2.4,3.1-3.3,4.8
		c-2.6,5.4-4.8,10.9-7.1,16.5c-0.3,0.7-1.4,2,0.2,2.6c1.4-0.3,1.6-1.4,2.1-2.2c0.6-1.2,1-3.2,1.9-3.4c3.8-0.9,7.7-0.5,11.5-0.3
		c2.3,0.1,1.9,2.6,2.8,4c0.5,0.8,0.7,2.3,1.9,1.8C231.4,61.1,230,59.8,229.7,59z M223.7,53.5c-3,0.1-5.9,0.2-8.9-0.1
		c-0.9-0.1-0.3-1.2,0-1.9c1.4-3.3,2.8-6.6,4.5-10.7c2.5,3.8,3.3,7.5,4.9,10.9C224.6,52.4,224.7,53.4,223.7,53.5z"/>
</g>
<path class="st1" d="M145.1,32.9c0-8.3-4.1-12.4-12.4-12.5c-36.4-0.1-72.9-0.1-109.3-0.1c-8,0-12.3,4.3-12.3,12.2
	c0,34.3,0,68.7,0,103c0,8.2,4.2,12.3,12.5,12.3c18.2,0,36.3,0,54.5,0c0,0,0-0.1,0-0.1c18.2,0,36.3,0,54.5,0
	c8.5,0,12.6-4.1,12.6-12.6C145.1,101.1,145.1,67,145.1,32.9z M106.7,45.7c0.4,0,0.9-0.1,1.3-0.1c1.2,2.5,2.3,4.9,3.7,7.8
	c-3,0-5.5,0-8.6,0C104.4,50.7,105.6,48.2,106.7,45.7z M130.6,118.6c-7.2-16.5-14.3-33.1-21.5-49.6c-0.5-1.2-1-2.4-2-4.7
	c-1,2.4-1.6,3.8-2.2,5.2c-7.1,16.7-14.3,33.4-21.4,50c-0.9,2-1.7,3.7-4.5,3.5c-2.7-0.2-4.7-0.2-6.3-3.1
	c-6.9-12.8-14.2-25.4-21.3-38.1c-0.5-1-1.2-1.9-2.1-3.3c-0.8,1.2-1.6,2.1-2.1,3.1c-7,12.3-14.2,24.5-20.9,37
	c-2.1,3.9-4.5,5.2-9.2,3.8C27.5,103,38,83.5,48.5,64.1c0.4,0,0.9-0.1,1.3-0.1c9.2,17.1,18.3,34.2,27.8,52c0.9-2,1.6-3.3,2.1-4.6
	l20.8-48.7c1.2-2.8,2.9-3.4,5.5-3.1c2.7,0.3,5.8-1.2,7.6,2.8c8.2,19.4,16.6,38.6,24.9,57.9c0.3,0.7,0.4,1.4,0.8,2.4
	C132.9,123.7,132.8,123.7,130.6,118.6z"/>
</svg>
