<svg xmlns="http://www.w3.org/2000/svg" width="108.103" height="69.721" viewBox="0 0 108.103 69.721"><g transform="translate(0)"><path d="M-630.468,576.268c-2.379-2.876-3.485-18.309.774-19.028,5.034-.885,4.038,15.6,1.659,19.084A1.566,1.566,0,0,1-630.468,576.268Zm-2.987-29.1c-10.51,2.655-15.488,11.395-13.884,24.67,1.383,11.174,10.842,17.922,22.734,14.548C-603.253,580.306-606.682,540.369-633.455,547.172Z" transform="translate(647.634 -517.541)" fill="#171717" fill-rule="evenodd"/><path d="M-501.019,574.433c-3.983-.332-11.561,5.255-14.437-1.328.166-.055.387-.332.443-.221l3.651-.885c3.817-.719,7.8-2.047,10.51-4.812,7.246-7.412,2.987-23.564-14.548-20.079-18.807,3.706-20.135,31.972-6.527,38.222,7.412,3.43,24.5,1.493,24.062-3.817A20.441,20.441,0,0,0-501.019,574.433Zm-15.543-10.842c11.782-.5,6.029-10.62,1.715-5.476C-516.065,559.609-516.341,561.545-516.562,563.591Z" transform="translate(595.515 -517.642)" fill="#171717" fill-rule="evenodd"/><path d="M-550.831,573.447c.387-3.264-1.715-7.246-3.153-9.127a1.624,1.624,0,0,0-1.328-.166c-2.544,1.051-5.034,2.378-5.034-1.77l-.055-36.342a2.712,2.712,0,0,0-1.825-2.489,73.222,73.222,0,0,0-11.008.055,2.689,2.689,0,0,0-2.213,2.6c0,7.855-.055,29.87-.055,37.724,0,2.379-.221,6.8,4.757,10.454C-565.379,578.259-551.329,576.489-550.831,573.447Z" transform="translate(615.401 -507.253)" fill="#171717" fill-rule="evenodd"/><path d="M-502.21,497.2c.277,1.715,1.549,3.651,2.213,7.523-.608,2.544-11.671,11.118-10.565,15.377,5.366-3.153,12.667-6.251,15.931-4.868,1.549,2.434,2.378,5.7,3.263,5.31,1.162-2.268,2.6-5.476,4.259-7.246,2.1-2.268,5.919-1.659,8.795-2.6-1-3.761-3.54-4.591-4.2-6.693-1-3.208,1.217-6.748,1-9.68-1.659-.719-5.974,2.932-8.85,3.651C-493.913,497.643-497.675,496.371-502.21,497.2Z" transform="translate(586.417 -494.231)" fill="#171717" fill-rule="evenodd"/></g></svg>