<svg xmlns="http://www.w3.org/2000/svg" width="139.724" height="49.079" viewBox="0 0 139.724 49.079"><g transform="translate(0)"><path d="M-676.2,710.821c.055-.166.166-.387.221-.553a18.154,18.154,0,0,1,3.54-9.4,19.326,19.326,0,0,1,7.467-6.2,16.967,16.967,0,0,1,5.919-1.715,24.388,24.388,0,0,1,4.481-.111,24.662,24.662,0,0,1,4.868,1.051,18.666,18.666,0,0,1,6.914,4.093,18.573,18.573,0,0,1,5.089,7.578,16.669,16.669,0,0,1,1.051,4.646c.055.719.166,1.438.166,2.213a19.606,19.606,0,0,1-3.319,10.344,19.764,19.764,0,0,1-6.25,5.863,19.871,19.871,0,0,1-5.863,2.268,20.72,20.72,0,0,1-6.914.332,19.885,19.885,0,0,1-5.033-1.328,4.505,4.505,0,0,0-.609-.166,3.646,3.646,0,0,0-.055.774v11.34h-11.616C-676.2,731.453-676.2,721.164-676.2,710.821Zm11.671,1.217a8.158,8.158,0,0,0,8.076,8.076,8.1,8.1,0,0,0,8.352-8.021,8.181,8.181,0,0,0-8.187-8.076A8.11,8.11,0,0,0-664.529,712.037Z" transform="translate(676.2 -692.773)" fill="#171717"/><path d="M-472.9,759.37V732.93c0-.775,0-.775.774-.775h5.2a1.061,1.061,0,0,1,1,.5c1.991,2.655,3.983,5.365,6.029,8.021,1.991,2.6,3.927,5.2,5.919,7.8a1.2,1.2,0,0,0,.277.166.786.786,0,0,0,.111-.332V732.819c0-.719,0-.719.719-.719h5.255c.5,0,.664.166.608.664v25.943a2.693,2.693,0,0,0,.055.664h-6.8c-.055-.111-.055-.277-.166-.332-.885-1.217-1.77-2.378-2.71-3.6-1.549-2.1-3.153-4.149-4.7-6.25-1.438-1.936-2.876-3.817-4.314-5.753a7,7,0,0,0-.608-.719.893.893,0,0,0-.166.5v15.543a2.27,2.27,0,0,0,.055.608Z" transform="translate(585.354 -710.346)" fill="#171717"/><path d="M-534.8,759.37c.83-1.936,1.6-3.872,2.434-5.808,1.106-2.655,2.157-5.255,3.264-7.91.719-1.715,1.438-3.374,2.157-5.089.94-2.213,1.825-4.37,2.766-6.583a15.338,15.338,0,0,0,.553-1.438.607.607,0,0,1,.664-.443h6.2a.607.607,0,0,1,.664.443c.83,2.047,1.715,4.093,2.6,6.2,1.162,2.766,2.323,5.476,3.485,8.242l2.987,7.135c.719,1.77,1.438,3.485,2.213,5.255h-6.693c-.553-1.383-1.162-2.711-1.715-4.093-.111-.332-.166-.774-.387-.885-.221-.166-.664,0-1,.055-1.438.111-2.876.276-4.314.387a25.777,25.777,0,0,1-6.2-.443c-.719-.11-.83-.221-1.106.609a.419.419,0,0,1-.11.221c-.553,1.383-1.162,2.766-1.715,4.149Zm14.99-19.858a.854.854,0,0,0-.166.332c-1.162,2.821-2.379,5.642-3.54,8.463-.166.387-.055.553.442.608a31.922,31.922,0,0,0,6.085,0c1.106-.111,1.106-.055.664-1.106-1.106-2.655-2.157-5.31-3.263-7.965A3.372,3.372,0,0,0-519.81,739.512Z" transform="translate(613.015 -710.346)" fill="#171717"/><path d="M-574.4,759.46v-26.5c0-.664,0-.664.664-.664h11.893a12.521,12.521,0,0,1,5.974,1.272A8.539,8.539,0,0,1-551.942,738a9.831,9.831,0,0,1,.332,6.416,8.955,8.955,0,0,1-5.753,6.472,11.7,11.7,0,0,1-4.149.719c-1.936.055-3.927,0-5.863,0-.5,0-.609.166-.609.609v7.246Zm6.361-17.756v3.319c0,.5.166.608.608.608h4.536a11.619,11.619,0,0,0,2.378-.277,3.825,3.825,0,0,0,2.711-3.872,3.754,3.754,0,0,0-3.706-3.6c-1.991-.166-3.983-.055-6.029-.111-.387,0-.5.166-.5.553C-568.039,739.436-568.039,740.542-568.039,741.7Z" transform="translate(630.71 -710.436)" fill="#171717"/><path d="M-502.142,705.687c0-.221.055-.443.055-.664v-6.859c0-.5.166-.664.664-.664.83.055,1.659,0,2.545,0,0,.221.055.387.055.553v12.39c0,.442-.111.609-.553.553a14.775,14.775,0,0,0-2.212,0,.931.931,0,0,1-.83-.387c-1.438-1.77-2.932-3.485-4.37-5.255-.608-.774-1.272-1.494-1.881-2.268l-.443-.443V711h-2.932c-.111,0-.221-.166-.277-.221-.055-.111,0-.277,0-.387V698.219c0-.664,0-.664.664-.664h2.157a.793.793,0,0,1,.608.276c2.047,2.379,4.038,4.812,6.029,7.191.221.221.387.5.608.719A.193.193,0,0,1-502.142,705.687Z" transform="translate(602.98 -694.885)" fill="#171717"/><path d="M-574.5,704.3v-6.2c0-.5.166-.608.608-.608,1.77,0,3.54,0,5.31.055a5.558,5.558,0,0,1,2.655.664,2.784,2.784,0,0,1,1.438,2.268,3.713,3.713,0,0,1-.885,3.1c-.055.055-.055.387.055.442,1.549,1.051,1.77,2.544,1.494,4.2a3.274,3.274,0,0,1-2.489,2.489,27.454,27.454,0,0,1-2.987.332c-1.549.055-3.042,0-4.591,0-.443,0-.608-.111-.608-.609C-574.445,708.4-574.5,706.35-574.5,704.3Zm4.7,1.217h0a10.216,10.216,0,0,1-1.272.055c-.332,0-.5.111-.5.442v1.936c0,.166.221.442.332.442,1.162,0,2.268-.055,3.43-.166a1.143,1.143,0,0,0,.94-1.328,1.21,1.21,0,0,0-1.106-1.217A10.2,10.2,0,0,0-569.8,705.521Zm0-2.323h1.217a1.253,1.253,0,0,0,1.383-1.383,1.36,1.36,0,0,0-1.272-1.549c-.885-.055-1.77-.055-2.655-.055-.277,0-.443.111-.443.443v2.1c0,.332.166.443.5.443Z" transform="translate(630.755 -694.885)" fill="#171717"/><path d="M-448.1,704.348a6.717,6.717,0,0,1,6.8-6.748,6.717,6.717,0,0,1,6.748,6.8,6.6,6.6,0,0,1-6.8,6.693A6.636,6.636,0,0,1-448.1,704.348Zm3.153,0a3.71,3.71,0,0,0,3.6,3.651,3.647,3.647,0,0,0,3.651-3.651,3.6,3.6,0,0,0-3.651-3.6A3.488,3.488,0,0,0-444.949,704.348Z" transform="translate(574.274 -694.929)" fill="#171717"/><path d="M-547.2,711.063c.332-.83.664-1.549.94-2.268,1-2.434,2.047-4.868,3.042-7.246.5-1.217,1-2.434,1.549-3.651a.636.636,0,0,1,.5-.332,24.032,24.032,0,0,1,2.821,0,.7.7,0,0,1,.5.387c1.051,2.379,2.047,4.812,3.042,7.246.774,1.936,1.549,3.817,2.378,5.808-.111,0-.276.055-.387.055-.719,0-1.438-.055-2.157,0-.553.055-.774-.166-.94-.664s-.443-1-.608-1.494a.491.491,0,0,0-.553-.332,16.625,16.625,0,0,1-2.323.277,23.28,23.28,0,0,1-2.766-.221c-.5-.055-.774,0-1,.5a13.918,13.918,0,0,1-.664,1.6.561.561,0,0,1-.387.332Zm7.523-9.9a1.511,1.511,0,0,1-.221.277l-1.659,3.983c-.166.387.111.443.332.443h2.876c.443,0,.5-.166.332-.608l-.664-1.659C-538.958,702.821-539.29,702.047-539.677,701.162Z" transform="translate(618.556 -694.896)" fill="#171717"/><path d="M-465.786,700.157c-.885.608-1.715,1.161-2.544,1.715a4.106,4.106,0,0,0-2.434-1.217,3.6,3.6,0,0,0-3.983,3.651,3.5,3.5,0,0,0,2.1,3.264,3.469,3.469,0,0,0,3.706-.387c.664-.5.664-.5,1.272-.055a22.408,22.408,0,0,0,1.881,1.272,6.7,6.7,0,0,1-7.523,2.268,6.444,6.444,0,0,1-4.591-6.361,6.52,6.52,0,0,1,4.425-6.361A6.665,6.665,0,0,1-465.786,700.157Z" transform="translate(587.589 -694.887)" fill="#171717"/></g></svg>