<svg xmlns="http://www.w3.org/2000/svg" width="193.771" height="51.439" viewBox="0 0 193.771 51.439"><path d="M-735.543,1343.626a9.491,9.491,0,0,1-3.79-2.126,9.664,9.664,0,0,1-4.021,2.08l-4.9,1.294a25.455,25.455,0,0,0-2.773,1.017c-.693.323-1.525.74-2.542,1.294l-.97.508a2.7,2.7,0,0,0-.832.647.581.581,0,0,0-.092.6l.37.74a2.967,2.967,0,0,1,.37,1.2c0,.093-.139.231-.37.37l-.508.37c-.786.6-1.34,1.109-1.71,1.432a3.734,3.734,0,0,0-1.155,1.9,4.369,4.369,0,0,0,.37,2.126,25.764,25.764,0,0,0,1.155,2.357c.6,1.109.97,1.849,1.155,2.218a2.661,2.661,0,0,1,.324,1.617,2.111,2.111,0,0,1-.6.693l-.693.647a13.047,13.047,0,0,0-1.617,2.634,10.191,10.191,0,0,0-1.017,3.189,10.8,10.8,0,0,0,.139,3.42,20.891,20.891,0,0,0,.786,2.819,17.289,17.289,0,0,0,3.328,5.731,22.979,22.979,0,0,0,4.714,3.882l5.361,3.143a40,40,0,0,1,5.361,3.512,9.326,9.326,0,0,1,2.172-1.479l2.449-1.248,4.76-2.681a31.2,31.2,0,0,0,4.3-2.911,15.653,15.653,0,0,0,3.466-3.79,17.253,17.253,0,0,0,2.311-5.13,11.755,11.755,0,0,0,.277-5.638,12.333,12.333,0,0,0-1.941-4.621l-.832-.878a1.735,1.735,0,0,1-.647-.924,2.939,2.939,0,0,1,.416-1.2l1.017-1.941a13.824,13.824,0,0,0,1.664-4.437c.046-.739-.555-1.71-1.849-2.865l-1.34-1.156a5.935,5.935,0,0,1-.6-.6,9.286,9.286,0,0,1,.832-2.311,20.647,20.647,0,0,0-7.718-4.113l-2.311-.647c-1.017-.324-1.756-.508-2.265-.739Zm-.878,1.155c.6.231,1.479.462,2.634.786l2.542.74a26.589,26.589,0,0,1,4.576,2.034l.97.508c.462.277.693.462.693.693a3.18,3.18,0,0,1-.37,1.063l-.508,1.156,2.45,2.08c1.109,1.017,1.664,1.664,1.664,2.034a13.414,13.414,0,0,1-1.525,4.113l-1.941,4.021a16.93,16.93,0,0,1,2.265,2.45,8.732,8.732,0,0,1,1.571,3.143,12.5,12.5,0,0,1-.924,8.411,15.686,15.686,0,0,1-2.034,3.328,16.617,16.617,0,0,1-2.357,2.4,33.389,33.389,0,0,1-3.882,2.542l-5.269,2.773-1.571.924a16.973,16.973,0,0,1-2.357,1.2q-.346,0-1.109-.693c-.6-.508-.924-.786-1.063-.878-.6-.37-1.664-.878-3.1-1.618-1.386-.693-2.449-1.248-3.143-1.664a19.977,19.977,0,0,1-5.407-4.206,19.2,19.2,0,0,1-2.033-2.911,18.709,18.709,0,0,1-1.618-3.744,9.982,9.982,0,0,1,.6-8.273,9.732,9.732,0,0,1,1.433-1.895l1.71-1.617a12.88,12.88,0,0,0-.878-2.219l-1.849-3.7a6.211,6.211,0,0,1-.647-1.71,2.82,2.82,0,0,1,1.386-2.588l1.34-.924a12.779,12.779,0,0,0,1.109-.786.9.9,0,0,0,.138-1.156,2.408,2.408,0,0,0-.323-.555l-.37-.462a1.491,1.491,0,0,1,0-.647,24.909,24.909,0,0,1,7.025-3.1l3.882-1.063a10.957,10.957,0,0,0,3.374-1.525l1.479.832a4.553,4.553,0,0,0,1.433.693Z" transform="translate(759.469 -1341.5)" fill="#171717"/><path d="M-723.07,1364.979a6.767,6.767,0,0,1,1.294-.6l.924-.37a.885.885,0,0,0,.37-.185.313.313,0,0,0,.139-.277l-.878-.046a14.915,14.915,0,0,0-1.756.555,6.656,6.656,0,0,1-1.941.416,11.549,11.549,0,0,1-2.819-.416l-1.479-.37c-.092,0-.139.046-.231.139a.306.306,0,0,0,.092.324l.693.277a2.93,2.93,0,0,1,1.155.74l.37.323.277.277.092.185a.346.346,0,0,1-.046.231l-.647.277a2.7,2.7,0,0,0-1.017.878l-.139.093-.185-.046-.6-.6a1.717,1.717,0,0,0-.878-.416,1.891,1.891,0,0,0-1.109.185,1.5,1.5,0,0,0-.74.925,1.989,1.989,0,0,0,0,.739,1.291,1.291,0,0,0,.37.554,1.86,1.86,0,0,0,.739.185c.092-.046.092-.093.092-.231l-.231-.508a.44.44,0,0,1,.092-.324.48.48,0,0,1,.37-.277l.508.092a1.309,1.309,0,0,1,.508.37,1.389,1.389,0,0,1,.277.508.5.5,0,0,1-.092.37,1.47,1.47,0,0,1-.6.37l-.647.555a3.63,3.63,0,0,0-1.063,2.727,2.954,2.954,0,0,0,.508,1.71,4.084,4.084,0,0,0,1.155,1.2l.508.185c.231.092.37.185.37.323v7.811a3.587,3.587,0,0,1-1.525-1.571l-.508-.971a7.45,7.45,0,0,0-.555-1.063c-.185-.277-.37-.509-.555-.739-.231-.231-.37-.324-.462-.277l-.092.139c-.046.046,0,.139,0,.277a3.081,3.081,0,0,1,.416.971,4.844,4.844,0,0,1,.139,1.109,3.571,3.571,0,0,1-.462,1.525,4.357,4.357,0,0,1-.832,1.155.184.184,0,0,0,.092.185l.139.047.693-.37a1.251,1.251,0,0,1,.74-.231,3.069,3.069,0,0,1,1.386.323,2.741,2.741,0,0,1,1.063,1.109,1.11,1.11,0,0,1,.092.693c-.046.277-.139.462-.323.508-.508.139-.832.093-1.063-.139a.667.667,0,0,1-.092-.323.42.42,0,0,1,.139-.324c.139-.139.185-.231.185-.277l-.092-.093c0-.046-.046-.046-.185-.046l-.277.046a.99.99,0,0,0-.555.74,1.064,1.064,0,0,0,.139.924,1.326,1.326,0,0,0,.924.6,3.013,3.013,0,0,0,1.71-.277,5.791,5.791,0,0,0,.878,1.109,6.328,6.328,0,0,0,1.294.786.466.466,0,0,1,.046.508,2.929,2.929,0,0,1-.924,1.156,2.138,2.138,0,0,1-1.155.37,1.708,1.708,0,0,1-.971-.277.879.879,0,0,1-.324-.786l.092-.37a.489.489,0,0,1,.324-.277q.555-.208.139-.555a1.1,1.1,0,0,0-1.34.416,1.526,1.526,0,0,0-.324.971,1.674,1.674,0,0,0,.277,1.063,1.939,1.939,0,0,0,1.386.878l1.525-.046a2.59,2.59,0,0,0,1.294-.786l.37-.416a1.508,1.508,0,0,1,.37-.277l1.386,1.2a2.777,2.777,0,0,0,1.433.647.923.923,0,0,0,.416-.092l-1.433-1.34a3.23,3.23,0,0,1-.74-2.034,2.665,2.665,0,0,1,.786-.277l.6-.185.508-.324.462-.37a3.929,3.929,0,0,0,1.155-1.525,9.135,9.135,0,0,0,.555-1.618l.786-.786a5,5,0,0,0,1.063-1.479,5.565,5.565,0,0,0,.324-2.819,4.64,4.64,0,0,0-.924-2.265,6.648,6.648,0,0,0-2.5-1.849l.786-2.172c.046-.323.138-.647.185-1.017l.092-1.155a1.711,1.711,0,0,1,.508.231l.416.323c.093.046.231.092.277.046h.139l-.647-1.063a3.824,3.824,0,0,1-.324-.832,6.508,6.508,0,0,1,.046-2.311h-.185l-.462.509a.511.511,0,0,1-.508.185c-.138-.046-.277-.185-.462-.462l-.508-.739-1.294-.878c-.508-.462-.138-.924,1.017-1.525Zm-1.155,2.635.323.277c.046.046.046.139,0,.324h-.185l-.6-.139a.563.563,0,0,1-.046-.231c0-.185,0-.277.046-.323.093-.092.277-.046.462.093Zm.092,1.8a1.67,1.67,0,0,1,.6.231l.647.462a1.67,1.67,0,0,1,.462,1.156,6.792,6.792,0,0,1-.046,1.664,5.954,5.954,0,0,1-.462,1.525c-.231.462-.462.739-.74.786h-.6l-.508-.185v-5.5c-.046-.093.185-.139.647-.139Zm-.786,9.2a1.351,1.351,0,0,1,1.109.416,5.751,5.751,0,0,1,1.063,1.387,5.528,5.528,0,0,1,.6,1.8,3.313,3.313,0,0,1-.185,1.71,1.509,1.509,0,0,1-.878.647,4.822,4.822,0,0,1-1.71.139v-6.1Zm1.2-1.2c.092-.231.139-.37.231-.416l.37-.139a4.466,4.466,0,0,1,1.941,1.109,4.476,4.476,0,0,1,1.156,1.895,3.961,3.961,0,0,1,0,1.8c-.139.6-.37.924-.739.97a10.751,10.751,0,0,1-.324-1.155l-.231-.971a6.52,6.52,0,0,0-.924-1.618,3.762,3.762,0,0,0-1.479-1.479Zm-3.79-9.428a.624.624,0,0,1,.231-.462.813.813,0,0,1,.6-.277h.277c.046,0,.092.046.139.092a1.284,1.284,0,0,1,.046.416.211.211,0,0,1-.185.231Zm-1.987,2.681c.185-.046.277,0,.323.139a19.039,19.039,0,0,1,.046,2.588v.508c0,.092-.093.139-.231.092a.746.746,0,0,1-.647-.416,2.151,2.151,0,0,1-.324-1.294,2.291,2.291,0,0,1,.37-1.2,2.687,2.687,0,0,1,.462-.416Zm1.756,5.592h.693a.867.867,0,0,1,.6.139.173.173,0,0,1,0,.277l-.416.047h-.878a.722.722,0,0,0,0-.462Zm.647,1.756a1.255,1.255,0,0,1,.786.277v6.424c0,.092-.046.092-.231.092l-.508-.092c-.508-.139-.786-.37-.786-.555v-6.1l.739-.046Zm.74,8.55a1.571,1.571,0,0,1,.046.462c0,.416-.092.693-.324.693a1.046,1.046,0,0,1-.693-.323,1.386,1.386,0,0,1-.37-1.294,2.268,2.268,0,0,1,1.248.277c.046-.046.092,0,.092.185Zm-1.386-16.823c0-.139.277-.231.786-.277h.739v3.974a5.488,5.488,0,0,1-.092,1.294l-.555.046a1.91,1.91,0,0,1-.878-.231v-4.806Zm4.9,16.453a1.748,1.748,0,0,1-.416.6l-.739.6c-.324.185-.508.323-.693.323s-.323-.185-.323-.509a7.948,7.948,0,0,1,.046-.924l1.8-.277c.277-.092.37,0,.323.185Z" transform="translate(745.61 -1353.333)" fill="#171717"/><path d="M-682.381,1413.8c-.092.046-.092.046,0,.046v-.046Z" transform="translate(718.045 -1380.385)" fill="#171717"/><path d="M-724.856,1354.359a1.024,1.024,0,0,0-.74-.369.661.661,0,0,0-.508.231l-.508.785c-.046,0-.185-.092-.416-.416l-.693-.832a13.121,13.121,0,0,0-1.34-1.109l-1.479-.924a4.829,4.829,0,0,0-3.05-.647l-.416.138a3.837,3.837,0,0,1-.462.092c-.093,0-.231-.185-.37-.508l-.277-.6-.185.462a1.549,1.549,0,0,1-.416.647l-1.063-.277-1.063-.092a7.962,7.962,0,0,0-2.865,1.016,11.761,11.761,0,0,0-2.126,1.664l-.647.647c-.185.185-.324.277-.37.231l-.231-.185-.277-.323a.839.839,0,0,0-.647-.278c-.462,0-.739.185-.832.462a1.282,1.282,0,0,0,0,.832.88.88,0,0,0,.37.139c.185,0,.277,0,.277-.046a.218.218,0,0,0-.046-.277c-.139-.139-.231-.277-.185-.416.046-.185.185-.231.37-.277a.592.592,0,0,1,.462.185.742.742,0,0,1,.139.508,1.727,1.727,0,0,1-.231.832,19.955,19.955,0,0,1-1.525,2.172c-.37.462-.693.693-.924.693a.993.993,0,0,1-.231-.37.726.726,0,0,0-.231-.37l-.277-.093h-.231c-.092-.046-.231,0-.37.139a.736.736,0,0,0-.231.462c0,.046,0,.092.092.185a.344.344,0,0,0,.231.047c0-.277.139-.37.323-.324a.312.312,0,0,1,.231.416,1.1,1.1,0,0,1-.416.693,3.062,3.062,0,0,1-1.017.416l-1.109.323c-.046,0-.046,0-.046.093,0,.046.046.139.092.139,2.265.832,3.05,1.756,2.542,2.819-.139.277-.37.37-.74.462-.324.046-.508,0-.6-.092a.391.391,0,0,1-.092-.277l.092-.323c0-.046.093-.046.185-.046s.185,0,.185-.046c.046-.139.093-.277,0-.37q-.069-.208-.416-.139a.667.667,0,0,0-.508.323.852.852,0,0,0-.046.6,1.549,1.549,0,0,0,.37.647,1.316,1.316,0,0,0,.647.37,10.6,10.6,0,0,1,2.172.693,5.262,5.262,0,0,1,1.387,1.664,6.115,6.115,0,0,1,.786,3.05,5.7,5.7,0,0,1-.786,3,3.576,3.576,0,0,1-1.387,1.248,3.336,3.336,0,0,1-1.895.37,1.669,1.669,0,0,1-1.156-.6,1.528,1.528,0,0,1-.323-1.063,1.071,1.071,0,0,1,.555-.878.86.86,0,0,1,.786-.139.587.587,0,0,1,.324.416.586.586,0,0,1-.046.277c-.046.139-.092.185-.185.185s-.092.092.046.277l.093.047c.046.046.185,0,.277-.047a.6.6,0,0,0,.231-.508,1.846,1.846,0,0,0-.323-.97.97.97,0,0,1-.092-.647v-.693l-.185-.093h-.277c-.093.046-.046.185.046.37.092.092.092.231.092.416a.308.308,0,0,1-.231.323,2.558,2.558,0,0,0-1.017.462,1.408,1.408,0,0,0-.37.37l-.185.462-.046.74.139.555a1.136,1.136,0,0,1,.046.554.525.525,0,0,1-.139.37.78.78,0,0,1-.462.323c-.185,0-.277,0-.277-.092v-.139c0-.046,0-.092-.046-.092s-.092-.046-.139-.046l-.139.046a.352.352,0,0,0-.092.185v.231a.28.28,0,0,0,.231.277,1.355,1.355,0,0,0,.416.093.8.8,0,0,0,.647-.37l.462-.416.37.046.924.277c.185.046.231.139.093.323l-.37.416-.6.832a14.208,14.208,0,0,0-.924,1.664l-.416-.139-.37-.046a.743.743,0,0,0-.416.139.618.618,0,0,0-.324.37v.37a.39.39,0,0,0,.093.277l.277.093h.277c.046,0,0-.046,0-.093l-.139-.139a.368.368,0,0,1-.093-.462.344.344,0,0,1,.462-.139.736.736,0,0,1,.462.37,3.019,3.019,0,0,1,.185,1.109c0,.647.046,1.017.046,1.156a4.693,4.693,0,0,0,.739,1.71,4.37,4.37,0,0,0,1.155,1.109,2.618,2.618,0,0,0,1.156.37h1.617a.964.964,0,0,1,.37.462,1.02,1.02,0,0,1,0,.74l-.647.693a.971.971,0,0,0-.046,1.2c.046.185.231.277.416.37h.6c.139,0,.277-.139.37-.37s0-.37-.231-.416l-.185.139a.286.286,0,0,1-.323.093c-.092,0-.185-.093-.277-.231a.785.785,0,0,1-.046-.323.757.757,0,0,1,.786-.6l.416.046a1.764,1.764,0,0,1,.6.37,7.515,7.515,0,0,1,1.248,2.08l.508,1.155a4.867,4.867,0,0,0,.647,1.017,5.033,5.033,0,0,0,1.2.97,5.813,5.813,0,0,0,1.386.555l1.248.092c.277.046.6.37,1.017.971l.74,1.248.6-1.155a2.339,2.339,0,0,1,.74-.924,1.809,1.809,0,0,1,.6-.092h.508a5.6,5.6,0,0,0,1.941-.6,4.133,4.133,0,0,0,1.433-1.155,4.51,4.51,0,0,0,.555-.971l.462-1.017a5.789,5.789,0,0,1,1.2-1.849l.231-.231a1.011,1.011,0,0,1,.37-.139l.971.046a1.561,1.561,0,0,1,.37.878,2.047,2.047,0,0,0-.878.277c-.092.092.185.231.878.37a1.263,1.263,0,0,0,.139-1.571l-.231-.323-.139-.37a1.663,1.663,0,0,1,.139-1.109l1.849-.278a6.5,6.5,0,0,0,1.525-.508,3.282,3.282,0,0,0,1.664-2.634l.046-1.2a6.026,6.026,0,0,1,.092-1.063l.6-.093.324.462-.046.185h.092c.231-.046.277-.046.139-.046l.046-.693a.213.213,0,0,0-.138-.231l-.924.046a.6.6,0,0,1-.6-.37l-.231-.694a9.34,9.34,0,0,0-1.017-1.664l-.231-.277a.3.3,0,0,1-.092-.231.207.207,0,0,1,.185-.139l1.156-.37c.046,0,.139.046.231.185l.277.37.277.277.416.185h.37l.231-.185c.092-.046.092-.139.092-.277a.5.5,0,0,0-.092-.37h-.324l-.092.231c0,.092-.092.139-.185.139a.676.676,0,0,1-.508-.277l-.139-.416a2.268,2.268,0,0,1,.046-.508l.139-.416a1.888,1.888,0,0,0-.092-1.387,2.749,2.749,0,0,0-.37-.37l-.416-.323a4.765,4.765,0,0,1-.786-.693.569.569,0,0,1-.092-.462c.046-.092.092-.185.231-.185s.185-.092.139-.185a.392.392,0,0,0-.277-.092l-.231.092-.185.139a.692.692,0,0,0-.093.462,4.42,4.42,0,0,0,.185.786,1.357,1.357,0,0,1-.185.139c-.185.093-.323.185-.37.37-.046.046-.046.185-.046.37a.661.661,0,0,0,.139.508.466.466,0,0,0,.323.185c.092,0,.231,0,.277-.046s.046-.139-.046-.323a.418.418,0,0,1-.139-.416.554.554,0,0,1,.324-.323,1.649,1.649,0,0,1,.462-.092.974.974,0,0,1,.462.185,1.173,1.173,0,0,1,.37.462c.277,1.017-.231,1.71-1.525,1.988h-.555a2.118,2.118,0,0,1-.693-.185,4.808,4.808,0,0,1-1.294-.832,6.287,6.287,0,0,1-.878-1.248,4.327,4.327,0,0,1-.462-1.109,7.032,7.032,0,0,1-.092-1.525l.277-1.849a4.77,4.77,0,0,1,1.2-2.034,4.683,4.683,0,0,1,2.033-1.155l.924-.185a1.551,1.551,0,0,0,.786-.324,1.6,1.6,0,0,0,.323-.554.764.764,0,0,0-.139-.647.744.744,0,0,0-.508-.139c-.231,0-.37.047-.37.185,0,.092,0,.185.092.185l.277.046.046.231a.9.9,0,0,1-.046.37,1.007,1.007,0,0,1-.231.139l-.231.046h-.139l-.416-.046c-.185-.093-.323-.323-.37-.74a1.405,1.405,0,0,1,.231-1.155,2.271,2.271,0,0,1,.971-.74l1.2-.555a2.155,2.155,0,0,0,.462-.277l-.139-.092-.739-.231a4.724,4.724,0,0,1-1.248-.554,1,1,0,0,1-.462-.509c-.139-.323-.093-.508.138-.647.046-.046.185,0,.37.092.139.046.277.092.277.046a.33.33,0,0,0-.139-.462.565.565,0,0,0-.416-.185.662.662,0,0,0-.462.185c-.092.046-.139.185-.231.37l-.139.277c-.092.046-.462-.277-1.063-.97a8.438,8.438,0,0,1-1.294-1.8c-.323-.647-.416-1.063-.323-1.248.185-.37.416-.462.647-.37l.185.139.046.046-.092.509-.092.185c-.046.046,0,.093.092.093h.277c.092-.047.231-.093.277-.185a.642.642,0,0,0,.093-.509c.046.323-.046.139-.185,0Zm-10.63-.647a.4.4,0,0,1,.277-.139.38.38,0,0,1,.277.185.457.457,0,0,1,.092.277q-.069.139-.416.139c-.231,0-.37-.093-.37-.185a1.543,1.543,0,0,0,.139-.277Zm9.012,2.311,1.294,1.756a10.426,10.426,0,0,0,1.479,1.617c.139.093.509.37,1.155.786.508.324.786.509.832.647a.185.185,0,0,1-.092.185l-.37.139-.277.185c-.093.092-.185.139-.277.092-.092,0-.185-.046-.277-.231l-.277-.323-.231-.185a2.115,2.115,0,0,0-.74-.185,1.4,1.4,0,0,0-.924.37l-.786.6a.51.51,0,0,1-.37,0l-.416-.139c-.046,0-.046.046,0,.185a.359.359,0,0,0,.139.324l.647.046.092.139.093.185.416.416a.745.745,0,0,0,.647.046c.092,0,.185-.092.277-.323.046-.185,0-.277-.092-.231l-.416.139-.185-.139a.418.418,0,0,1-.139-.462.7.7,0,0,1,.323-.555.938.938,0,0,1,.924-.277,1.113,1.113,0,0,1,.647.647,2,2,0,0,1-.046.693,6.226,6.226,0,0,0-.139.924,3.525,3.525,0,0,0,.231.97l.092.277c0,.046,0,.092-.092.092a3.462,3.462,0,0,0-1.109.555,4.142,4.142,0,0,0-1.386,1.2,6.3,6.3,0,0,0-.878,1.941,7.754,7.754,0,0,0-.324,2.681,5.292,5.292,0,0,0,.508,1.8,6.828,6.828,0,0,0,.97,1.479,4.407,4.407,0,0,0,.924.647l.97.6a7.536,7.536,0,0,1,2.219,2.5,5.772,5.772,0,0,1,.092,4.067,3.185,3.185,0,0,1-.878,1.433,2.84,2.84,0,0,1-1.479.832,3.4,3.4,0,0,1-2.727-.647,2.166,2.166,0,0,1-.924-1.756,3.348,3.348,0,0,1,.508-1.8,1.762,1.762,0,0,1,1.155-.924c.462-.093.786.185,1.063.786l.277-.647-.555-.416a2.3,2.3,0,0,0-.786-.231l-.046-.786-.185-.554c-.416.046-.647.184-.693.37.555.231.693.6.37,1.109l-.924,1.155a3.337,3.337,0,0,0-.6,1.8,2.311,2.311,0,0,0,.462,1.248l.74.971a1.6,1.6,0,0,1,.37.971,1.259,1.259,0,0,1-.37.739,4.33,4.33,0,0,1-.647.554l-.739.462a1.846,1.846,0,0,0-.508.554l-.37.647-.231.324h-.324l-.6-.231h-.971a1.713,1.713,0,0,0-.508.832q.624.485.555,0c.277-.462.508-.647.739-.554s.37.37.37.786a2.352,2.352,0,0,1-.416,1.432,3.047,3.047,0,0,1-1.618,1.294,3.227,3.227,0,0,1-2.08.139,1.671,1.671,0,0,1-1.294-1.156,1.505,1.505,0,0,1,.139-1.109,1.079,1.079,0,0,1,.786-.462l.231.046c.092.046.185.046.139.046l.277.37a2.82,2.82,0,0,1,.231.554,1.162,1.162,0,0,0,.323-.554.914.914,0,0,0-.092-.508c-.185-.37-.555-.509-1.109-.462a.8.8,0,0,0-.555.277l-.462.37h-.647l-.555-.37a1.126,1.126,0,0,0-.971-.185,2.221,2.221,0,0,0-.739.647c.046.693.185.74.37.185l.185-.277q1.04-.208,1.387.416a1.281,1.281,0,0,1,.139.6,1.157,1.157,0,0,1-.185.647,1.848,1.848,0,0,1-1.34.878,3.649,3.649,0,0,1-2.449-.739,4.991,4.991,0,0,1-.878-.786,2.248,2.248,0,0,1-.508-1.525.992.992,0,0,1,.185-.555.593.593,0,0,1,.462-.185.327.327,0,0,1,.37.323.141.141,0,0,1,0,.185c0,.046,0,.092-.046.092l-.231.093q-.139.416.555.277c.093,0,.185-.139.231-.37a1.122,1.122,0,0,0,0-.554c0-.046-.139-.185-.37-.323a1.4,1.4,0,0,0-.508-.277,1.017,1.017,0,0,0-.739.231l-.508.462-.6-1.063a9.2,9.2,0,0,0-.693-1.017,4.627,4.627,0,0,0-.832-.508l-.6-.323a1.679,1.679,0,0,1,0-1.34,1.388,1.388,0,0,1,.37-.416l.37-.416a5.881,5.881,0,0,0,.555-1.572,3.154,3.154,0,0,0-.555-2.172l-.555-.6a1.127,1.127,0,0,1-.416-.693c-.092-.508,0-.786.231-.786h.277c.092,0,.092-.093.092-.231s-.139-.277-.37-.277a1.368,1.368,0,0,0-.462.092,1.731,1.731,0,0,0-.231.37l-.092.37v.046l.046.185c0,.185-.046.37-.185.37h-.277l-.37.092a.824.824,0,0,0-.37.323l-.185.277a.509.509,0,0,0,.046.462.4.4,0,0,0,.277.139h.139c.046,0,.046-.139,0-.37,0-.185,0-.277.139-.37a.5.5,0,0,1,.37-.092,1.259,1.259,0,0,1,.924.323,2.291,2.291,0,0,1,.555.786,3.941,3.941,0,0,1,.37,1.618,2.022,2.022,0,0,1-.74,1.664,2.967,2.967,0,0,1-1.71.647,2.985,2.985,0,0,1-1.895-.462,3.31,3.31,0,0,1-1.387-1.756,4.245,4.245,0,0,1-.231-1.294l.046-1.156a4.312,4.312,0,0,1,.878-2.5,9,9,0,0,1,1.895-1.8q1.525-1.248,1.941-1.664a3.992,3.992,0,0,0,1.156-2.033,5.83,5.83,0,0,0-.046-2.681,9.572,9.572,0,0,0-.832-2.218,4.2,4.2,0,0,0-1.386-1.479l-.924-.462-.092-.046-.139-.093a.309.309,0,0,1-.139-.37l.185-.37a1.063,1.063,0,0,0,.139-.416,4.821,4.821,0,0,0-.092-.693l-.139-.6a.815.815,0,0,1,.509-.924.916.916,0,0,1,1.2.185,1.436,1.436,0,0,1,.277.6c0,.185-.046.323-.139.37l-.6.046c-.093.046-.093.139-.046.231a.426.426,0,0,0,.277.185.966.966,0,0,0,.647-.139.631.631,0,0,0,.139-.277l.231-.231.37-.046a.907.907,0,0,0,.37-.046c.231-.185.324-.37.277-.509a.254.254,0,0,0-.277-.185l-.092.139a.24.24,0,0,1-.092.185h-.508l-.231-.416a.875.875,0,0,0-.323-.37,2.022,2.022,0,0,0-.878-.323,1.217,1.217,0,0,0-.924.231c-.093.046-.185.231-.324.462-.092.185-.185.277-.37.231a2.2,2.2,0,0,1-.74-.37q-.347-.347-.138-.416l1.109-.647a5.346,5.346,0,0,0,1.386-1.156,13.883,13.883,0,0,0,1.248-1.525l1.34-1.71a12.615,12.615,0,0,1,2.588-2.449,7.132,7.132,0,0,1,3.235-1.294h.74a1.789,1.789,0,0,1,1.155.416,1.2,1.2,0,0,1,.185.647,2.444,2.444,0,0,1-.046.6c-.046.185-.185.185-.37.046l-.046-.231a.214.214,0,0,0-.139-.231c-.093,0-.185,0-.231.092l-.046.278-.046.739a.24.24,0,0,1-.185.093h-.231a.292.292,0,0,1-.324-.324l.046-.139a.294.294,0,0,0,0-.277c-.046-.185-.231-.231-.416-.046a.536.536,0,0,0-.185.462.96.96,0,0,0,.231.555,1.016,1.016,0,0,0,.786.277l.6-.139.508.231a1.6,1.6,0,0,0,.555.139,1.937,1.937,0,0,0,1.017-.37l1.063.092a1.042,1.042,0,0,0,.508-.231,2.761,2.761,0,0,0,.185-.37c.046,0,.046-.093,0-.324a.424.424,0,0,0-.185-.277.255.255,0,0,0-.231.092v.231c0,.139,0,.231-.046.277a.541.541,0,0,1-.324.092c-.185,0-.324-.046-.37-.231v-.6l-.046-.277a.39.39,0,0,0-.277-.093c-.046,0-.046.046-.046.185l-.046.323-.092.092h-.185c-.139,0-.231-.185-.231-.416a1.227,1.227,0,0,1,.277-.971,1.572,1.572,0,0,1,.647-.37,3.016,3.016,0,0,1,1.8.046c.277.093.693.277,1.248.508a9.032,9.032,0,0,1,2.449,1.618,28.478,28.478,0,0,1,1.987,2.45Zm-8.643,35.448q.416.346.416.554c.185.647-.231,1.156-1.2,1.525-.277-.462-.509-.924-.74-1.386l.924-1.155.6.462Z" transform="translate(755.344 -1346.179)" fill="#171717"/><g transform="translate(51.286 4.067)"><path d="M-375.333,1396.382l.092-9.382c0-3.42-.37-5.87-1.017-7.164a7.917,7.917,0,0,0-3.7-3.143c-1.756-.924-4.483-1.294-8-1.294-3.975,0-6.979.647-8.92,2.033a11.806,11.806,0,0,0-4.3,6.609l7.348,1.294a5.628,5.628,0,0,1,1.849-2.958,5.914,5.914,0,0,1,3.328-.832c2.126,0,3.6.277,4.391,1.017a4.02,4.02,0,0,1,1.109,3.235v.832a49.9,49.9,0,0,1-7.81,1.941,19.02,19.02,0,0,0-6.332,1.941,7.881,7.881,0,0,0-3.513,2.958,9.59,9.59,0,0,0-1.2,4.668,8.833,8.833,0,0,0,2.681,6.424,10.653,10.653,0,0,0,7.441,2.5,13.343,13.343,0,0,0,5.038-.924,17.145,17.145,0,0,0,4.391-3.05,3.748,3.748,0,0,1,.277.924c.277,1.109.555,1.849.739,2.4h8a13.1,13.1,0,0,1-1.386-4.113,25.383,25.383,0,0,1-.508-5.916Zm-18.625.924a3.2,3.2,0,0,1,1.571-2.865,13.694,13.694,0,0,1,4.391-1.387c2.218-.462,3.79-.924,4.853-1.2v1.571a17.21,17.21,0,0,1-.277,3.882,5.066,5.066,0,0,1-1.941,2.681,6.964,6.964,0,0,1-4.067,1.386,4.393,4.393,0,0,1-3.235-1.2,3.513,3.513,0,0,1-1.294-2.866Z" transform="translate(515.924 -1363.8)" fill="#171717"/><path d="M-433.027,1375.4a5.534,5.534,0,0,0-3.42,1.017,10.929,10.929,0,0,0-3.42,3.975V1376H-447.4v30.41h8.088v-9.382c0-5.13.185-8.55.647-10.214a6.308,6.308,0,0,1,1.849-3.328,4.617,4.617,0,0,1,2.865-.924,7.148,7.148,0,0,1,3.7,1.294l2.5-6.979a10.794,10.794,0,0,0-5.269-1.479Z" transform="translate(540.341 -1363.8)" fill="#171717"/><path d="M-478.121,1362.547h-5.962v-2.126c0-1.572.185-2.588.74-3.143a3.492,3.492,0,0,1,2.5-.74,16.482,16.482,0,0,1,3.6.37l1.109-5.592a23.557,23.557,0,0,0-6.7-1.017,12.661,12.661,0,0,0-5.592,1.2,6.708,6.708,0,0,0-2.958,3.05,14.567,14.567,0,0,0-.832,5.685v2.311H-496.7v6.332h4.483v24.079h8.088v-24.079h5.962v-6.332Z" transform="translate(566.857 -1350.3)" fill="#171717"/><path d="M-537.379,1396.382l.185-9.382c0-3.42-.37-5.87-1.109-7.164a7.485,7.485,0,0,0-3.7-3.143c-1.756-.924-4.391-1.294-8-1.294-3.882,0-6.886.647-8.92,2.033a11.7,11.7,0,0,0-4.206,6.609l7.256,1.294a5.69,5.69,0,0,1,1.941-2.958,5.517,5.517,0,0,1,3.328-.832c2.033,0,3.512.277,4.252,1.017a3.759,3.759,0,0,1,1.2,3.235v.832a56.377,56.377,0,0,1-7.811,1.941,20.425,20.425,0,0,0-6.424,1.941,7.638,7.638,0,0,0-3.42,2.958,8.68,8.68,0,0,0-1.2,4.668,8.486,8.486,0,0,0,2.68,6.424,10.335,10.335,0,0,0,7.348,2.5,13.343,13.343,0,0,0,5.038-.924,16.082,16.082,0,0,0,4.483-3.05,3.011,3.011,0,0,0,.277.924,12.629,12.629,0,0,0,.739,2.4h7.9a20.547,20.547,0,0,1-1.386-4.113,29.032,29.032,0,0,1-.462-5.916Zm-18.579.924a3.2,3.2,0,0,1,1.571-2.865,14.619,14.619,0,0,1,4.391-1.387c2.218-.462,3.79-.924,4.945-1.2v1.571a15.605,15.605,0,0,1-.37,3.882,4.9,4.9,0,0,1-1.849,2.681,7.057,7.057,0,0,1-4.206,1.386,4.179,4.179,0,0,1-3.143-1.2,3.551,3.551,0,0,1-1.34-2.866Z" transform="translate(603.053 -1363.8)" fill="#171717"/><path d="M-614.346,1380.718a12.308,12.308,0,0,0-1.664-6.609,11.661,11.661,0,0,0-4.668-4.3c-1.941-1.109-5.038-2.033-9.1-3.05-4.206-.924-6.794-1.849-7.81-2.773a3.069,3.069,0,0,1-1.294-2.5,2.975,2.975,0,0,1,1.387-2.588,9.443,9.443,0,0,1,5.777-1.571,8.375,8.375,0,0,1,5.407,1.479,7.32,7.32,0,0,1,2.311,4.667l8.458-.37a12.724,12.724,0,0,0-4.206-9.289c-2.681-2.219-6.7-3.42-11.878-3.42a20.366,20.366,0,0,0-8.273,1.479,11.05,11.05,0,0,0-5.222,4.252,10.457,10.457,0,0,0-1.849,5.962,11.054,11.054,0,0,0,3.882,8.458c1.756,1.571,5.038,2.958,9.567,4.067,3.42.924,5.777,1.479,6.7,1.849a5.951,5.951,0,0,1,3.05,1.849,3.345,3.345,0,0,1,.924,2.5,5.1,5.1,0,0,1-2.126,3.974c-1.294,1.2-3.328,1.756-6.147,1.756a9.414,9.414,0,0,1-6.147-1.941,10.032,10.032,0,0,1-2.958-6.147l-8.273.924c.555,4.668,2.218,8.18,5.13,10.584,2.773,2.5,6.886,3.7,12.155,3.7a23.658,23.658,0,0,0,9.1-1.571,11.675,11.675,0,0,0,5.685-4.668,11.38,11.38,0,0,0,2.08-6.7Z" transform="translate(648.5 -1350.354)" fill="#171717"/></g></svg>